<?xml version="1.0" encoding="utf-8"?>
<!-- Generator: Adobe Illustrator 25.4.1, SVG Export Plug-In . SVG Version: 6.00 Build 0)  -->
<svg version="1.1" id="Layer_1" xmlns="http://www.w3.org/2000/svg" xmlns:xlink="http://www.w3.org/1999/xlink" x="0px" y="0px"
	 viewBox="0 0 1284.2 298.7" style="enable-background:new 0 0 1284.2 298.7;" xml:space="preserve">
<style type="text/css">
	.st0{fill:#005900;}
	.st1{fill:none;stroke:#000000;stroke-width:4;stroke-miterlimit:10;stroke-dasharray:12;}
	.st2{fill:#38ED90;}
	.st3{fill:#006C00;}
	.st4{fill:#008E1B;}
	.st5{fill:#45B53C;}
	.st6{fill:#FFFFFF;}
	.st7{fill:#666666;}
</style>
<g>
	<ellipse class="st0" cx="67" cy="115.9" rx="46.2" ry="47.7"/>
</g>
<line class="st1" x1="113.2" y1="115.9" x2="242.2" y2="115.9"/>
<g>
	<ellipse class="st2" cx="1167.1" cy="115.9" rx="46.2" ry="47.7"/>
</g>
<g>
	<ellipse class="st3" cx="288.4" cy="115.9" rx="46.2" ry="47.7"/>
</g>
<line class="st1" x1="334.6" y1="115.9" x2="463.6" y2="115.9"/>
<g>
	<ellipse class="st4" cx="509.8" cy="115.9" rx="46.2" ry="47.7"/>
</g>
<line class="st1" x1="556" y1="115.9" x2="684.9" y2="115.9"/>
<g>
	<ellipse class="st5" cx="731.2" cy="115.9" rx="46.2" ry="47.7"/>
</g>
<line class="st1" x1="777.4" y1="115.9" x2="896" y2="119.7"/>
<line class="st1" x1="992" y1="115.9" x2="1120.9" y2="115.9"/>
<g>
	<path class="st5" d="M896,119.7l-3.2,18.6c-0.4,2.5,2.2,4.4,4.4,3.1l20.6-12.8c2.1-1.3,1.8-4.6-0.6-5.4l-17.5-5.9
		C898.1,116.8,896.3,117.9,896,119.7z"/>
	<g>
		<path class="st5" d="M972.5,126.7c-3.8,13.2-15.5,22.8-29.4,22.8c-13.1,0-24.3-8.6-28.7-20.8l-11.1,8.3
			c7.1,15.6,22.2,26.5,39.8,26.5c21.2,0,38.9-15.8,43.1-36.8L972.5,126.7L972.5,126.7z"/>
	</g>
	<path class="st5" d="M987.7,112.1l3.2-18.6c0.4-2.5-2.2-4.4-4.4-3.1l-20.6,12.8c-2.1,1.3-1.8,4.6,0.6,5.4l17.5,5.9
		C985.6,115,987.4,113.9,987.7,112.1z"/>
	<g>
		<path class="st5" d="M911.2,105.1c3.8-13.2,15.5-22.8,29.4-22.8c13.1,0,24.3,8.6,28.7,20.8l11.1-8.3
			c-7.1-15.7-22.2-26.5-39.8-26.5c-21.2,0-38.9,15.8-43.1,36.8L911.2,105.1L911.2,105.1z"/>
	</g>
</g>
<g>
	<g>
		<path class="st6" d="M64.7,105.6h-0.1l-6.2,2.9l-1.1-4.5l8.3-3.8H71v31.2h-6.2L64.7,105.6L64.7,105.6z"/>
	</g>
</g>
<g>
	<g>
		<path class="st6" d="M276.3,132.4v-3.6l4-3.4c8-6.8,11.8-10.5,11.8-14.7c0-2.8-1.6-5.2-6.1-5.2c-3,0-5.6,1.4-7.3,2.6l-1.9-4.2
			c2.4-1.8,6.2-3.2,10.5-3.2c7.6,0,11.2,4.3,11.2,9.4c0,5.5-4.3,9.9-10.3,14.9l-2.9,2.4v0.1h14v4.9L276.3,132.4L276.3,132.4z"/>
	</g>
</g>
<g>
	<g>
		<path class="st6" d="M497.4,123.1c1.3,0.7,4.5,1.9,7.8,1.9c4.9,0,6.9-2.5,6.9-5c0-3.7-3.8-5.3-7.7-5.3h-2.9v-4.3h2.9
			c3,0,6.7-1.2,6.7-4.3c0-2.2-1.7-3.9-5.4-3.9c-2.8,0-5.5,1.1-7,1.9l-1.5-4.3c1.9-1.2,5.7-2.4,9.8-2.4c7,0,10.6,3.6,10.6,7.6
			c0,3.2-2.1,5.9-6.3,7.3v0.1c4.1,0.7,7.5,3.6,7.5,7.8c0,5.3-4.8,9.5-13.3,9.5c-4.2,0-7.7-1.1-9.5-2.2L497.4,123.1z"/>
	</g>
</g>
<g>
	<g>
		<path class="st6" d="M731,129.7v-7.9h-15.4v-3.8l13.9-19.4h7.6v18.8h4.4v4.5h-4.4v7.9C737.1,129.7,731,129.7,731,129.7z
			 M731,117.3v-8.5c0-1.8,0.1-3.6,0.2-5.4l-0.2,0c-1.1,2-2,3.6-3,5.3l-6.2,8.5l0,0.1L731,117.3L731,117.3z"/>
	</g>
</g>
<g>
	<g>
		<path d="M951.3,103.4h-13.1l-1,6.2c0.8-0.1,1.4-0.1,2.5-0.1c3,0,6,0.6,8.3,2c2.6,1.5,4.5,4.2,4.5,7.9c0,5.9-5.4,10.8-13.7,10.8
			c-4,0-7.2-0.9-9-1.8l1.3-4.5c1.5,0.7,4.4,1.7,7.5,1.7c3.8,0,7.4-2,7.4-5.7c0-3.6-2.9-5.9-9.7-5.9c-1.9,0-3.3,0.1-4.7,0.3l2.2-15.7
			h17.6L951.3,103.4L951.3,103.4z"/>
	</g>
</g>
<g>
	<g>
		<path class="st6" d="M1173.9,103.2c-0.6,0-1.3,0-2.2,0.2c-4.7,0.8-6.9,4.8-7.5,9.1h0.1c1.1-1.8,2.8-3,5-3c3.8,0,6.8,3.8,6.8,10.1
			c0,6-3.1,11.2-7.9,11.2c-5.4,0-8.4-5.8-8.4-13.5c0-6,1.6-10.9,3.9-14c2.1-2.7,4.8-4.3,8-4.6c0.9-0.2,1.6-0.2,2.1-0.1L1173.9,103.2
			z M1171.9,120c0-3.6-1.4-6.2-3.9-6.2c-1.6,0-3,1.4-3.7,3.2c-0.2,0.4-0.3,1-0.3,1.8c0.1,4.1,1.5,7.5,4.2,7.5
			C1170.5,126.4,1171.9,123.7,1171.9,120z"/>
	</g>
</g>
<g>
	<g>
		<path class="st7" d="M264.6,206.5c-0.2-3.4-0.4-7.5-0.4-10.5h-0.1c-0.8,2.8-1.8,5.9-3,9.2L257,217h-2.3l-3.8-11.6
			c-1.1-3.4-2-6.5-2.7-9.4h-0.1c-0.1,3-0.2,7.1-0.5,10.7l-0.6,10.4h-2.9l1.6-24.3h3.9l4,11.7c1,3,1.8,5.6,2.4,8.2h0.1
			c0.6-2.5,1.4-5.1,2.5-8.2l4.2-11.8h3.9l1.5,24.3h-3L264.6,206.5z"/>
		<path class="st7" d="M274.4,209c0.1,4.3,2.7,6,5.8,6c2.2,0,3.5-0.4,4.7-0.9l0.5,2.2c-1.1,0.5-2.9,1.1-5.6,1.1
			c-5.2,0-8.3-3.6-8.3-8.8c0-5.3,3-9.4,7.9-9.4c5.5,0,6.9,5,6.9,8.2c0,0.7,0,1.1-0.1,1.5L274.4,209L274.4,209z M283.4,206.7
			c0-2-0.8-5.1-4.2-5.1c-3.1,0-4.5,2.9-4.7,5.1H283.4z"/>
		<path class="st7" d="M291.9,209c0.1,4.3,2.7,6,5.8,6c2.2,0,3.5-0.4,4.7-0.9l0.5,2.2c-1.1,0.5-2.9,1.1-5.6,1.1
			c-5.2,0-8.3-3.6-8.3-8.8c0-5.3,3-9.4,7.9-9.4c5.5,0,6.9,5,6.9,8.2c0,0.7,0,1.1-0.1,1.5L291.9,209L291.9,209z M300.9,206.7
			c0-2-0.8-5.1-4.2-5.1c-3.1,0-4.5,2.9-4.7,5.1H300.9z"/>
		<path class="st7" d="M311.3,194.7v5h4.4v2.4h-4.4v9.4c0,2.2,0.6,3.4,2.3,3.4c0.8,0,1.4-0.1,1.8-0.2l0.1,2.4
			c-0.6,0.2-1.6,0.4-2.7,0.4c-1.4,0-2.6-0.5-3.3-1.3c-0.8-1-1.2-2.5-1.2-4.5v-9.5h-2.6v-2.4h2.6v-4.2L311.3,194.7z"/>
	</g>
</g>
<g>
	<g>
		<path class="st7" d="M224.7,246.1c0,6.4-4.3,9.3-8.4,9.3c-4.6,0-8.1-3.4-8.1-9c0-5.8,3.7-9.2,8.4-9.2
			C221.4,237.2,224.7,240.8,224.7,246.1z M211.3,246.3c0,3.8,2.1,6.7,5.1,6.7c2.9,0,5.1-2.8,5.1-6.8c0-2.9-1.4-6.7-5.1-6.7
			C212.9,239.6,211.3,243,211.3,246.3z"/>
		<path class="st7" d="M242.7,250.2c0,1.8,0.1,3.4,0.1,4.8h-2.7l-0.2-2.9h-0.1c-0.8,1.4-2.6,3.2-5.6,3.2c-2.6,0-5.8-1.5-5.8-7.6
			v-10.2h3.1v9.6c0,3.3,1,5.6,3.8,5.6c2.1,0,3.5-1.5,4.1-2.9c0.2-0.5,0.3-1,0.3-1.6v-10.7h3.1L242.7,250.2L242.7,250.2z"/>
		<path class="st7" d="M247.8,243c0-2.1,0-3.8-0.1-5.4h2.7l0.1,3.4h0.1c0.8-2.3,2.6-3.8,4.7-3.8c0.3,0,0.6,0,0.9,0.1v3
			c-0.3-0.1-0.6-0.1-1-0.1c-2.2,0-3.7,1.7-4.1,4.1c-0.1,0.4-0.1,1-0.1,1.5v9.3h-3.1L247.8,243L247.8,243z"/>
		<path class="st7" d="M278.9,243.6h-9.1v8.8H280v2.6h-13.3v-24.3h12.7v2.6h-9.7v7.7h9.1L278.9,243.6L278.9,243.6z"/>
		<path class="st7" d="M285.2,237.6l2.4,3.7c0.6,1,1.2,1.9,1.7,2.8h0.1c0.6-1,1.1-1.9,1.7-2.9l2.3-3.7h3.3l-5.8,8.4l5.9,9h-3.5
			l-2.5-3.9c-0.6-1-1.2-2-1.8-3h-0.1c-0.6,1.1-1.1,2-1.8,3l-2.4,3.9h-3.4l6-8.9l-5.7-8.5H285.2z"/>
		<path class="st7" d="M300,243.3c0-2.2-0.1-4-0.1-5.7h2.7l0.2,3h0.1c1.2-2.1,3.2-3.4,6-3.4c4.1,0,7.2,3.6,7.2,8.8
			c0,6.3-3.7,9.4-7.7,9.4c-2.3,0-4.2-1-5.2-2.7H303v9.5H300L300,243.3L300,243.3z M303,247.9c0,0.4,0,0.9,0.1,1.3
			c0.6,2.2,2.4,3.7,4.6,3.7c3.3,0,5.1-2.8,5.1-6.7c0-3.5-1.8-6.5-5-6.5c-2.1,0-4.1,1.5-4.6,3.9c-0.1,0.4-0.2,0.9-0.2,1.3V247.9z"/>
		<path class="st7" d="M321.6,246.9c0.1,4.3,2.7,6,5.8,6c2.2,0,3.5-0.4,4.7-0.9l0.5,2.2c-1.1,0.5-2.9,1.1-5.6,1.1
			c-5.2,0-8.3-3.6-8.3-8.8c0-5.3,3-9.4,7.9-9.4c5.5,0,6.9,5,6.9,8.2c0,0.7,0,1.1-0.1,1.5L321.6,246.9L321.6,246.9z M330.5,244.6
			c0-2-0.8-5.1-4.2-5.1c-3.1,0-4.5,2.9-4.7,5.1H330.5z"/>
		<path class="st7" d="M337.3,243c0-2.1,0-3.8-0.1-5.4h2.7l0.1,3.4h0.1c0.8-2.3,2.6-3.8,4.7-3.8c0.3,0,0.6,0,0.9,0.1v3
			c-0.3-0.1-0.6-0.1-1-0.1c-2.2,0-3.7,1.7-4.1,4.1c-0.1,0.4-0.1,1-0.1,1.5v9.3h-3.1L337.3,243L337.3,243z"/>
		<path class="st7" d="M352.4,232.6v5h4.4v2.4h-4.4v9.4c0,2.2,0.6,3.4,2.3,3.4c0.8,0,1.4-0.1,1.8-0.2l0.1,2.4
			c-0.6,0.2-1.6,0.4-2.7,0.4c-1.4,0-2.6-0.5-3.3-1.3c-0.8-1-1.2-2.5-1.2-4.5V240h-2.6v-2.4h2.6v-4.2L352.4,232.6z"/>
	</g>
</g>
<g>
	<g>
		<path class="st7" d="M447.3,209.9l-2.4,7.6h-3.2l8-24.3h3.7l8,24.3h-3.2l-2.5-7.6H447.3z M455,207.4l-2.3-7
			c-0.5-1.6-0.9-3-1.2-4.4h-0.1c-0.3,1.4-0.7,2.9-1.2,4.4l-2.3,7L455,207.4L455,207.4z"/>
		<path class="st7" d="M464.3,214.3c0.9,0.6,2.5,1.2,4.1,1.2c2.2,0,3.3-1.1,3.3-2.6c0-1.5-0.9-2.3-3.1-3.2c-3.1-1.1-4.5-2.9-4.5-4.9
			c0-2.8,2.2-5.1,5.8-5.1c1.7,0,3.2,0.5,4.1,1.1l-0.8,2.3c-0.6-0.4-1.9-1-3.5-1c-1.8,0-2.8,1.1-2.8,2.4c0,1.4,1,2.1,3.2,3
			c2.9,1.1,4.4,2.6,4.4,5.2c0,3.1-2.3,5.2-6.3,5.2c-1.9,0-3.6-0.5-4.7-1.2L464.3,214.3z"/>
		<path class="st7" d="M481.6,208.1L481.6,208.1c0.5-0.6,1.1-1.4,1.5-2l5-6h3.7l-6.5,7.2l7.4,10.2H489l-5.8-8.4l-1.6,1.8v6.6h-3.1
			v-25.6h3.1L481.6,208.1L481.6,208.1z"/>
		<path class="st7" d="M516.4,212.7c0,1.8,0.1,3.4,0.1,4.8h-2.7l-0.2-2.9h-0.1c-0.8,1.4-2.6,3.2-5.6,3.2c-2.6,0-5.8-1.5-5.8-7.6
			v-10.2h3.1v9.6c0,3.3,1,5.6,3.8,5.6c2.1,0,3.5-1.5,4.1-2.9c0.2-0.5,0.3-1,0.3-1.6v-10.7h3.1L516.4,212.7L516.4,212.7z"/>
		<path class="st7" d="M521.1,214.3c0.9,0.6,2.5,1.2,4.1,1.2c2.2,0,3.3-1.1,3.3-2.6c0-1.5-0.9-2.3-3.1-3.2c-3.1-1.1-4.5-2.9-4.5-4.9
			c0-2.8,2.2-5.1,5.8-5.1c1.7,0,3.2,0.5,4.1,1.1l-0.8,2.3c-0.6-0.4-1.9-1-3.5-1c-1.8,0-2.8,1.1-2.8,2.4c0,1.4,1,2.1,3.2,3
			c2.9,1.1,4.4,2.6,4.4,5.2c0,3.1-2.3,5.2-6.3,5.2c-1.9,0-3.6-0.5-4.7-1.2L521.1,214.3z"/>
		<path class="st7" d="M543.1,217.5v-15h-2.4v-2.4h2.4v-0.8c0-2.5,0.5-4.7,2-6.1c1.2-1.1,2.7-1.6,4.1-1.6c1.1,0,2,0.2,2.6,0.5
			l-0.4,2.4c-0.5-0.2-1.1-0.4-2-0.4c-2.6,0-3.3,2.4-3.3,5.1v0.9h4.1v2.4h-4.1v15L543.1,217.5L543.1,217.5z"/>
		<path class="st7" d="M568.3,208.6c0,6.4-4.3,9.3-8.4,9.3c-4.6,0-8.1-3.4-8.1-9c0-5.8,3.7-9.2,8.4-9.2
			C565,199.7,568.3,203.3,568.3,208.6z M554.9,208.8c0,3.8,2.1,6.7,5.1,6.7c2.9,0,5.1-2.8,5.1-6.8c0-2.9-1.4-6.7-5.1-6.7
			C556.4,202.1,554.9,205.5,554.9,208.8z"/>
		<path class="st7" d="M572.1,205.5c0-2.1,0-3.8-0.1-5.4h2.7l0.1,3.4h0.1c0.8-2.3,2.6-3.8,4.7-3.8c0.3,0,0.6,0,0.9,0.1v3
			c-0.3-0.1-0.6-0.1-1-0.1c-2.2,0-3.7,1.7-4.1,4.1c-0.1,0.4-0.1,1-0.1,1.5v9.3h-3.1L572.1,205.5L572.1,205.5z"/>
	</g>
</g>
<g>
	<g>
		<path class="st7" d="M430.7,256.5c0.1-1.2,0.1-2.9,0.1-4.5V231h3.1v10.9h0.1c1.1-2,3-3.2,5.8-3.2c4.2,0,7.1,3.6,7.1,8.9
			c0,6.2-3.8,9.3-7.6,9.3c-2.4,0-4.4-1-5.7-3.3h-0.1l-0.2,2.9L430.7,256.5L430.7,256.5z M433.9,249.5c0,0.4,0,0.8,0.1,1.1
			c0.6,2.2,2.4,3.7,4.6,3.7c3.2,0,5.1-2.7,5.1-6.7c0-3.5-1.8-6.5-5-6.5c-2.1,0-4,1.5-4.6,3.9c-0.1,0.4-0.2,0.8-0.2,1.3L433.9,249.5
			L433.9,249.5z"/>
		<path class="st7" d="M452.4,248.4c0.1,4.3,2.7,6,5.8,6c2.2,0,3.5-0.4,4.7-0.9l0.5,2.2c-1.1,0.5-2.9,1.1-5.6,1.1
			c-5.2,0-8.3-3.6-8.3-8.8c0-5.3,3-9.4,7.9-9.4c5.5,0,6.9,5,6.9,8.2c0,0.7,0,1.1-0.1,1.5L452.4,248.4L452.4,248.4z M461.4,246.1
			c0-2-0.8-5.1-4.2-5.1c-3.1,0-4.5,2.9-4.7,5.1H461.4z"/>
		<path class="st7" d="M471.9,234.1v5h4.4v2.4h-4.4v9.4c0,2.2,0.6,3.4,2.3,3.4c0.8,0,1.4-0.1,1.8-0.2l0.1,2.4
			c-0.6,0.2-1.6,0.4-2.7,0.4c-1.4,0-2.6-0.5-3.3-1.3c-0.8-1-1.2-2.5-1.2-4.5v-9.5h-2.6v-2.4h2.6v-4.2L471.9,234.1z"/>
		<path class="st7" d="M483.4,234.1v5h4.4v2.4h-4.4v9.4c0,2.2,0.6,3.4,2.3,3.4c0.8,0,1.4-0.1,1.8-0.2l0.1,2.4
			c-0.6,0.2-1.6,0.4-2.7,0.4c-1.4,0-2.6-0.5-3.3-1.3c-0.8-1-1.2-2.5-1.2-4.5v-9.5h-2.6v-2.4h2.6v-4.2L483.4,234.1z"/>
		<path class="st7" d="M493,248.4c0.1,4.3,2.7,6,5.8,6c2.2,0,3.5-0.4,4.7-0.9l0.5,2.2c-1.1,0.5-2.9,1.1-5.6,1.1
			c-5.2,0-8.3-3.6-8.3-8.8c0-5.3,3-9.4,7.9-9.4c5.5,0,6.9,5,6.9,8.2c0,0.7,0,1.1-0.1,1.5L493,248.4L493,248.4z M502,246.1
			c0-2-0.8-5.1-4.2-5.1c-3.1,0-4.5,2.9-4.7,5.1H502z"/>
		<path class="st7" d="M508.8,244.5c0-2.1,0-3.8-0.1-5.4h2.7l0.1,3.4h0.1c0.8-2.3,2.6-3.8,4.7-3.8c0.3,0,0.6,0,0.9,0.1v3
			c-0.3-0.1-0.6-0.1-1-0.1c-2.2,0-3.7,1.7-4.1,4.1c-0.1,0.4-0.1,1-0.1,1.5v9.3h-3.1L508.8,244.5L508.8,244.5z"/>
		<path class="st7" d="M542.2,231V252c0,1.6,0.1,3.3,0.1,4.5h-2.7l-0.2-3h-0.1c-0.9,1.9-3,3.4-5.7,3.4c-4.1,0-7.2-3.6-7.2-8.8
			c0-5.8,3.5-9.4,7.6-9.4c2.6,0,4.3,1.2,5.1,2.6h0.1V231L542.2,231L542.2,231z M539.1,246.2c0-0.4,0-0.9-0.1-1.4
			c-0.5-2-2.1-3.6-4.4-3.6c-3.2,0-5.1,2.9-5.1,6.7c0,3.5,1.7,6.5,5,6.5c2.1,0,3.9-1.4,4.5-3.8c0.1-0.4,0.2-0.9,0.2-1.4L539.1,246.2
			L539.1,246.2z"/>
		<path class="st7" d="M549,248.4c0.1,4.3,2.7,6,5.8,6c2.2,0,3.5-0.4,4.7-0.9l0.5,2.2c-1.1,0.5-2.9,1.1-5.6,1.1
			c-5.2,0-8.3-3.6-8.3-8.8c0-5.3,3-9.4,7.9-9.4c5.5,0,6.9,5,6.9,8.2c0,0.7,0,1.1-0.1,1.5L549,248.4L549,248.4z M558,246.1
			c0-2-0.8-5.1-4.2-5.1c-3.1,0-4.5,2.9-4.7,5.1H558z"/>
		<path class="st7" d="M574.1,256.5l-0.3-2.2h-0.1c-0.9,1.4-2.7,2.6-5.2,2.6c-3.4,0-5.2-2.5-5.2-5c0-4.2,3.6-6.5,10.1-6.5v-0.4
			c0-1.4-0.4-4-3.8-4c-1.6,0-3.2,0.5-4.4,1.3l-0.7-2.1c1.4-0.9,3.4-1.5,5.6-1.5c5.2,0,6.4,3.6,6.4,7.1v6.5c0,1.5,0.1,3,0.3,4.2
			L574.1,256.5L574.1,256.5z M573.6,247.6c-3.3-0.1-7.1,0.5-7.1,3.9c0,2.1,1.3,3,2.9,3c2.2,0,3.6-1.4,4.1-2.9c0.1-0.3,0.1-0.7,0.1-1
			L573.6,247.6L573.6,247.6z"/>
		<path class="st7" d="M581.6,231h3.1v25.6h-3.1V231z"/>
	</g>
</g>
<g>
	<g>
		<path class="st7" d="M705.7,192.4c1.3-0.3,3.4-0.5,5.5-0.5c3,0,5,0.5,6.5,1.8c1.2,0.9,2,2.4,2,4.3c0,2.3-1.5,4.4-4,5.3v0.1
			c2.2,0.6,4.9,2.5,4.9,6.1c0,2.1-0.8,3.7-2,4.8c-1.6,1.6-4.3,2.3-8.1,2.3c-2.1,0-3.7-0.1-4.7-0.3L705.7,192.4L705.7,192.4z
			 M708.7,202.4h2.8c3.2,0,5.1-1.8,5.1-4.1c0-2.8-2.1-3.9-5.1-3.9c-1.4,0-2.2,0.1-2.7,0.2V202.4z M708.7,214
			c0.6,0.1,1.5,0.2,2.6,0.2c3.2,0,6.1-1.2,6.1-4.7c0-3.3-2.8-4.7-6.1-4.7h-2.5L708.7,214L708.7,214z"/>
		<path class="st7" d="M739.8,207.5c0,6.4-4.3,9.3-8.4,9.3c-4.6,0-8.1-3.4-8.1-9c0-5.8,3.7-9.2,8.4-9.2
			C736.5,198.5,739.8,202.2,739.8,207.5z M726.4,207.7c0,3.8,2.1,6.7,5.1,6.7c2.9,0,5.1-2.8,5.1-6.8c0-2.9-1.4-6.7-5.1-6.7
			C727.9,200.9,726.4,204.4,726.4,207.7z"/>
		<path class="st7" d="M758.9,207.5c0,6.4-4.3,9.3-8.4,9.3c-4.6,0-8.1-3.4-8.1-9c0-5.8,3.7-9.2,8.4-9.2
			C755.7,198.5,758.9,202.2,758.9,207.5z M745.5,207.7c0,3.8,2.1,6.7,5.1,6.7c2.9,0,5.1-2.8,5.1-6.8c0-2.9-1.4-6.7-5.1-6.7
			C747.1,200.9,745.5,204.4,745.5,207.7z"/>
		<path class="st7" d="M765.9,206.9L765.9,206.9c0.5-0.6,1.1-1.4,1.5-2l5-6h3.7l-6.5,7.2l7.4,10.2h-3.7l-5.8-8.4l-1.6,1.8v6.6h-3.1
			v-25.6h3.1L765.9,206.9L765.9,206.9z"/>
	</g>
</g>
<g>
	<g>
		<path class="st7" d="M687.5,229.9c1.5-0.3,3.4-0.5,5.8-0.5c3,0,5.2,0.7,6.6,2c1.3,1.2,2.1,2.9,2.1,5.1c0,2.2-0.6,3.9-1.8,5.2
			c-1.6,1.8-4.2,2.7-7.2,2.7c-0.9,0-1.8,0-2.5-0.2v9.7h-3V229.9z M690.5,241.6c0.7,0.2,1.5,0.3,2.5,0.3c3.7,0,5.9-1.9,5.9-5.2
			c0-3.2-2.2-4.8-5.6-4.8c-1.3,0-2.3,0.1-2.9,0.2V241.6z"/>
		<path class="st7" d="M706,241.9c0-2.1,0-3.8-0.1-5.4h2.7l0.1,3.4h0.1c0.8-2.3,2.6-3.8,4.7-3.8c0.3,0,0.6,0,0.9,0.1v3
			c-0.3-0.1-0.6-0.1-1-0.1c-2.2,0-3.7,1.7-4.1,4.1c-0.1,0.4-0.1,1-0.1,1.5v9.3H706L706,241.9L706,241.9z"/>
		<path class="st7" d="M732.7,245c0,6.4-4.3,9.3-8.4,9.3c-4.6,0-8.1-3.4-8.1-9c0-5.8,3.7-9.2,8.4-9.2
			C729.4,236,732.7,239.7,732.7,245z M719.3,245.2c0,3.8,2.1,6.7,5.1,6.7c2.9,0,5.1-2.8,5.1-6.8c0-2.9-1.4-6.7-5.1-6.7
			C720.8,238.4,719.3,241.9,719.3,245.2z"/>
		<path class="st7" d="M751.1,228.3v21.1c0,1.6,0.1,3.3,0.1,4.5h-2.7l-0.2-3h-0.1c-0.9,1.9-3,3.4-5.7,3.4c-4.1,0-7.2-3.6-7.2-8.8
			c0-5.8,3.5-9.4,7.6-9.4c2.6,0,4.3,1.2,5.1,2.6h0.1v-10.4L751.1,228.3L751.1,228.3z M748.1,243.5c0-0.4,0-0.9-0.1-1.4
			c-0.5-2-2.1-3.6-4.4-3.6c-3.2,0-5.1,2.9-5.1,6.7c0,3.5,1.7,6.5,5,6.5c2.1,0,3.9-1.4,4.5-3.8c0.1-0.4,0.2-0.9,0.2-1.4L748.1,243.5
			L748.1,243.5z"/>
		<path class="st7" d="M770.4,249.1c0,1.8,0.1,3.4,0.1,4.8h-2.7l-0.2-2.9h-0.1c-0.8,1.4-2.6,3.2-5.6,3.2c-2.6,0-5.8-1.5-5.8-7.6
			v-10.2h3.1v9.6c0,3.3,1,5.6,3.8,5.6c2.1,0,3.5-1.5,4.1-2.9c0.2-0.5,0.3-1,0.3-1.6v-10.7h3.1L770.4,249.1L770.4,249.1z"/>
		<path class="st7" d="M787.5,253.2c-0.8,0.4-2.6,1-4.8,1c-5.1,0-8.4-3.6-8.4-8.9c0-5.4,3.5-9.3,9.1-9.3c1.8,0,3.4,0.5,4.3,0.9
			l-0.7,2.4c-0.8-0.4-1.9-0.8-3.6-0.8c-3.8,0-6,3-6,6.6c0,4,2.5,6.5,5.9,6.5c1.7,0,2.9-0.4,3.8-0.8L787.5,253.2z"/>
		<path class="st7" d="M794.8,231.4v5h4.4v2.4h-4.4v9.4c0,2.2,0.6,3.4,2.3,3.4c0.8,0,1.4-0.1,1.8-0.2l0.1,2.4
			c-0.6,0.2-1.6,0.4-2.7,0.4c-1.4,0-2.6-0.5-3.3-1.3c-0.8-1-1.2-2.5-1.2-4.5v-9.5h-2.6v-2.4h2.6v-4.2L794.8,231.4z"/>
	</g>
</g>
<g>
	<g>
		<path class="st7" d="M900.1,192c1.5-0.3,3.8-0.5,5.8-0.5c3.2,0,5.4,0.6,6.8,2c1.2,1.1,1.8,2.7,1.8,4.6c0,3.2-2,5.3-4.4,6.2v0.1
			c1.8,0.6,2.9,2.4,3.5,4.9c0.8,3.4,1.3,5.7,1.8,6.7h-3.2c-0.4-0.7-0.9-2.8-1.5-5.8c-0.7-3.3-2-4.6-4.7-4.7h-2.9V216h-3L900.1,192
			L900.1,192z M903.1,203.1h3.1c3.2,0,5.3-1.8,5.3-4.6c0-3.1-2.2-4.5-5.4-4.5c-1.5,0-2.5,0.1-3,0.3V203.1z"/>
		<path class="st7" d="M920.5,207.8c0.1,4.3,2.7,6,5.8,6c2.2,0,3.5-0.4,4.7-0.9l0.5,2.2c-1.1,0.5-2.9,1.1-5.6,1.1
			c-5.2,0-8.3-3.6-8.3-8.8c0-5.3,3-9.4,7.9-9.4c5.5,0,7,5,7,8.2c0,0.7,0,1.1-0.1,1.5L920.5,207.8L920.5,207.8z M929.5,205.6
			c0-2-0.8-5.1-4.2-5.1c-3.1,0-4.5,2.9-4.7,5.1H929.5z"/>
		<path class="st7" d="M948.3,215.3c-0.8,0.4-2.6,1-4.8,1c-5.1,0-8.4-3.6-8.4-8.9c0-5.4,3.5-9.3,9.1-9.3c1.8,0,3.4,0.5,4.3,0.9
			l-0.7,2.4c-0.8-0.4-1.9-0.8-3.6-0.8c-3.8,0-6,3-6,6.6c0,4,2.5,6.5,5.9,6.5c1.7,0,2.9-0.4,3.8-0.8L948.3,215.3z"/>
		<path class="st7" d="M953.6,207.8c0.1,4.3,2.7,6,5.8,6c2.2,0,3.5-0.4,4.7-0.9l0.5,2.2c-1.1,0.5-2.9,1.1-5.6,1.1
			c-5.2,0-8.3-3.6-8.3-8.8c0-5.3,3-9.4,7.9-9.4c5.5,0,6.9,5,6.9,8.2c0,0.7,0,1.1-0.1,1.5L953.6,207.8L953.6,207.8z M962.6,205.6
			c0-2-0.8-5.1-4.2-5.1c-3.1,0-4.5,2.9-4.7,5.1H962.6z"/>
		<path class="st7" d="M972.8,193.6c0,1.1-0.7,2-1.9,2c-1.1,0-1.9-0.9-1.9-2c0-1.1,0.8-2,1.9-2C972.1,191.7,972.8,192.5,972.8,193.6
			z M969.4,216v-17.4h3.1V216H969.4z"/>
		<path class="st7" d="M978.7,198.6l3.3,9.8c0.6,1.6,1,3.1,1.4,4.5h0.1c0.4-1.4,0.9-2.9,1.4-4.5l3.3-9.8h3.2l-6.6,17.4h-2.9
			l-6.4-17.4H978.7z"/>
		<path class="st7" d="M996.1,207.8c0.1,4.3,2.7,6,5.8,6c2.2,0,3.5-0.4,4.7-0.9l0.5,2.2c-1.1,0.5-2.9,1.1-5.6,1.1
			c-5.2,0-8.3-3.6-8.3-8.8c0-5.3,3-9.4,7.9-9.4c5.5,0,6.9,5,6.9,8.2c0,0.7,0,1.1-0.1,1.5L996.1,207.8L996.1,207.8z M1005,205.6
			c0-2-0.8-5.1-4.2-5.1c-3.1,0-4.5,2.9-4.7,5.1H1005z"/>
	</g>
</g>
<g>
	<g>
		<path class="st7" d="M864.9,229.9c1.9-0.3,4.1-0.5,6.5-0.5c4.4,0,7.5,1.1,9.5,3.1c2.1,2,3.3,4.8,3.3,8.7c0,4-1.2,7.2-3.4,9.4
			c-2.2,2.3-5.9,3.5-10.4,3.5c-2.2,0-4-0.1-5.5-0.3V229.9z M867.9,251.4c0.8,0.1,1.9,0.1,3.1,0.1c6.5,0,10-3.7,10-10.3
			c0-5.7-3.1-9.4-9.5-9.4c-1.6,0-2.8,0.1-3.6,0.3L867.9,251.4L867.9,251.4z"/>
		<path class="st7" d="M889.8,245.7c0.1,4.3,2.7,6,5.8,6c2.2,0,3.5-0.4,4.7-0.9l0.5,2.2c-1.1,0.5-2.9,1.1-5.6,1.1
			c-5.2,0-8.3-3.6-8.3-8.8c0-5.3,3-9.4,7.9-9.4c5.5,0,6.9,5,6.9,8.2c0,0.7,0,1.1-0.1,1.5L889.8,245.7L889.8,245.7z M898.7,243.4
			c0-2-0.8-5.1-4.2-5.1c-3.1,0-4.5,2.9-4.7,5.1H898.7z"/>
		<path class="st7" d="M905.5,228.3h3.1v25.6h-3.1V228.3z"/>
		<path class="st7" d="M917.2,231.5c0,1.1-0.7,2-1.9,2c-1.1,0-1.9-0.9-1.9-2c0-1.1,0.8-2,1.9-2C916.4,229.5,917.2,230.4,917.2,231.5
			z M913.8,253.8v-17.4h3.1v17.4H913.8z"/>
		<path class="st7" d="M923.1,236.4l3.3,9.8c0.6,1.6,1,3.1,1.4,4.5h0.1c0.4-1.4,0.9-2.9,1.4-4.5l3.3-9.8h3.2l-6.6,17.4h-2.9
			l-6.4-17.4H923.1z"/>
		<path class="st7" d="M940.4,245.7c0.1,4.3,2.7,6,5.8,6c2.2,0,3.5-0.4,4.7-0.9l0.5,2.2c-1.1,0.5-2.9,1.1-5.6,1.1
			c-5.2,0-8.3-3.6-8.3-8.8c0-5.3,3-9.4,7.9-9.4c5.5,0,6.9,5,6.9,8.2c0,0.7,0,1.1-0.1,1.5L940.4,245.7L940.4,245.7z M949.4,243.4
			c0-2-0.8-5.1-4.2-5.1c-3.1,0-4.5,2.9-4.7,5.1H949.4z"/>
		<path class="st7" d="M956.2,241.9c0-2.1,0-3.8-0.1-5.4h2.7l0.1,3.4h0.1c0.8-2.3,2.6-3.8,4.7-3.8c0.3,0,0.6,0,0.9,0.1v3
			c-0.3-0.1-0.6-0.1-1-0.1c-2.2,0-3.7,1.7-4.1,4.1c-0.1,0.4-0.1,1-0.1,1.5v9.3h-3.1L956.2,241.9L956.2,241.9z"/>
		<path class="st7" d="M977,253.8l-0.3-2.2h-0.1c-0.9,1.4-2.7,2.6-5.2,2.6c-3.4,0-5.2-2.5-5.2-5c0-4.2,3.6-6.5,10.1-6.5v-0.4
			c0-1.4-0.4-4-3.8-4c-1.6,0-3.2,0.5-4.4,1.3l-0.7-2.1c1.4-0.9,3.4-1.5,5.6-1.5c5.2,0,6.4,3.6,6.4,7.1v6.5c0,1.5,0.1,3,0.3,4.2
			L977,253.8L977,253.8z M976.5,245c-3.3-0.1-7.1,0.5-7.1,3.9c0,2.1,1.3,3,2.9,3c2.2,0,3.6-1.4,4.1-2.9c0.1-0.3,0.1-0.7,0.1-1
			L976.5,245L976.5,245z"/>
		<path class="st7" d="M984.3,253.8c0.1-1.2,0.1-2.9,0.1-4.5v-21.1h3.1v10.9h0.1c1.1-2,3-3.2,5.8-3.2c4.2,0,7.1,3.6,7.1,8.9
			c0,6.2-3.8,9.3-7.6,9.3c-2.4,0-4.4-1-5.7-3.3h-0.1l-0.2,2.9L984.3,253.8L984.3,253.8z M987.5,246.9c0,0.4,0,0.8,0.1,1.1
			c0.6,2.2,2.4,3.7,4.6,3.7c3.2,0,5.1-2.7,5.1-6.7c0-3.5-1.8-6.5-5-6.5c-2.1,0-4,1.5-4.6,3.9c-0.1,0.4-0.2,0.8-0.2,1.3L987.5,246.9
			L987.5,246.9z"/>
		<path class="st7" d="M1004.3,228.3h3.1v25.6h-3.1V228.3z"/>
		<path class="st7" d="M1014.3,245.7c0.1,4.3,2.7,6,5.8,6c2.2,0,3.5-0.4,4.7-0.9l0.5,2.2c-1.1,0.5-2.9,1.1-5.6,1.1
			c-5.2,0-8.3-3.6-8.3-8.8c0-5.3,3-9.4,7.9-9.4c5.5,0,6.9,5,6.9,8.2c0,0.7,0,1.1-0.1,1.5L1014.3,245.7L1014.3,245.7z M1023.2,243.4
			c0-2-0.8-5.1-4.2-5.1c-3.1,0-4.5,2.9-4.7,5.1H1023.2z"/>
		<path class="st7" d="M1029.6,250.6c0.9,0.6,2.5,1.2,4.1,1.2c2.2,0,3.3-1.1,3.3-2.6c0-1.5-0.9-2.3-3.1-3.2
			c-3.1-1.1-4.5-2.9-4.5-4.9c0-2.8,2.2-5.1,5.8-5.1c1.7,0,3.2,0.5,4.1,1.1l-0.8,2.3c-0.6-0.4-1.9-1-3.5-1c-1.8,0-2.8,1.1-2.8,2.4
			c0,1.4,1,2.1,3.2,3c2.9,1.1,4.4,2.6,4.4,5.2c0,3.1-2.3,5.2-6.3,5.2c-1.9,0-3.6-0.5-4.7-1.2L1029.6,250.6z"/>
	</g>
</g>
<g>
	<g>
		<path class="st7" d="M1083.2,208c1.4,0.9,3.3,1.6,5.4,1.6c3.1,0,4.9-1.7,4.9-4.1c0-2.2-1.3-3.6-4.5-4.8c-3.8-1.4-6.2-3.5-6.2-6.9
			c0-3.8,3-6.6,7.6-6.6c2.4,0,4.2,0.6,5.2,1.2l-0.8,2.6c-0.7-0.5-2.3-1.1-4.4-1.1c-3.2,0-4.5,2-4.5,3.6c0,2.2,1.4,3.4,4.7,4.7
			c4,1.6,6,3.6,6,7.1c0,3.7-2.7,7-8.2,7c-2.3,0-4.8-0.7-6-1.6L1083.2,208z"/>
		<path class="st7" d="M1101.9,194.4l2.3,8.8c0.5,1.9,0.9,3.8,1.3,5.6h0.1c0.4-1.8,0.9-3.6,1.5-5.5l2.8-8.9h2.6l2.6,8.7
			c0.6,2.1,1.1,3.9,1.5,5.7h0.1c0.3-1.8,0.8-3.6,1.3-5.6l2.4-8.7h3l-5.4,17.4h-2.8l-2.6-8.3c-0.6-1.9-1.1-3.7-1.5-5.7h-0.1
			c-0.4,2.1-1,3.9-1.5,5.8l-2.7,8.3h-2.8l-5.1-17.4L1101.9,194.4L1101.9,194.4z"/>
		<path class="st7" d="M1128.1,203.7c0.1,4.3,2.7,6,5.8,6c2.2,0,3.5-0.4,4.7-0.9l0.5,2.2c-1.1,0.5-2.9,1.1-5.6,1.1
			c-5.2,0-8.3-3.6-8.3-8.8c0-5.3,3-9.4,7.9-9.4c5.5,0,7,5,7,8.2c0,0.7,0,1.1-0.1,1.5L1128.1,203.7L1128.1,203.7z M1137.1,201.4
			c0-2-0.8-5.1-4.2-5.1c-3.1,0-4.5,2.9-4.7,5.1H1137.1z"/>
		<path class="st7" d="M1145.6,203.7c0.1,4.3,2.7,6,5.8,6c2.2,0,3.5-0.4,4.7-0.9l0.5,2.2c-1.1,0.5-2.9,1.1-5.6,1.1
			c-5.2,0-8.3-3.6-8.3-8.8c0-5.3,3-9.4,7.9-9.4c5.5,0,6.9,5,6.9,8.2c0,0.7,0,1.1-0.1,1.5L1145.6,203.7L1145.6,203.7z M1154.6,201.4
			c0-2-0.8-5.1-4.2-5.1c-3.1,0-4.5,2.9-4.7,5.1H1154.6z"/>
		<path class="st7" d="M1165.1,189.4v5h4.4v2.4h-4.4v9.4c0,2.2,0.6,3.4,2.3,3.4c0.8,0,1.4-0.1,1.8-0.2l0.1,2.4
			c-0.6,0.2-1.6,0.4-2.7,0.4c-1.4,0-2.6-0.5-3.3-1.3c-0.8-1-1.2-2.5-1.2-4.5v-9.5h-2.6v-2.4h2.6v-4.2L1165.1,189.4z"/>
		<path class="st7" d="M1183.5,187.5v10.2h11.4v-10.2h3.1v24.3h-3.1v-11.4h-11.4v11.4h-3.1v-24.3H1183.5z"/>
		<path class="st7" d="M1218.4,202.9c0,6.4-4.3,9.3-8.4,9.3c-4.6,0-8.1-3.4-8.1-9c0-5.8,3.7-9.2,8.4-9.2
			C1215.1,194,1218.4,197.6,1218.4,202.9z M1205,203.1c0,3.8,2.1,6.7,5.1,6.7c2.9,0,5.1-2.8,5.1-6.8c0-2.9-1.4-6.7-5.1-6.7
			C1206.6,196.4,1205,199.8,1205,203.1z"/>
		<path class="st7" d="M1222.3,199.1c0-1.8-0.1-3.3-0.1-4.7h2.7l0.2,2.8h0.1c0.9-1.7,2.5-3.2,5.3-3.2c2.3,0,4,1.4,4.8,3.5h0.1
			c0.5-1,1.2-1.7,1.9-2.3c1-0.8,2.1-1.2,3.7-1.2c2.3,0,5.6,1.5,5.6,7.6v10.2h-3v-9.9c0-3.4-1.2-5.4-3.7-5.4c-1.8,0-3.1,1.3-3.7,2.9
			c-0.1,0.5-0.3,1-0.3,1.6v10.8h-3v-10.4c0-2.8-1.2-4.8-3.5-4.8c-1.9,0-3.3,1.6-3.8,3.2c-0.2,0.5-0.2,1-0.2,1.6v10.5h-3V199.1z"/>
		<path class="st7" d="M1253.1,203.7c0.1,4.3,2.7,6,5.8,6c2.2,0,3.5-0.4,4.7-0.9l0.5,2.2c-1.1,0.5-2.9,1.1-5.6,1.1
			c-5.2,0-8.3-3.6-8.3-8.8c0-5.3,3-9.4,7.9-9.4c5.5,0,6.9,5,6.9,8.2c0,0.7,0,1.1-0.1,1.5L1253.1,203.7L1253.1,203.7z M1262.1,201.4
			c0-2-0.8-5.1-4.2-5.1c-3.1,0-4.5,2.9-4.7,5.1H1262.1z"/>
	</g>
</g>
<g>
	<g>
		<path class="st7" d="M1138.8,228.8c-2.5,3.6-4.4,8.2-4.4,14.8c0,6.4,1.9,11,4.4,14.6h-2.4c-2.2-3-4.6-7.6-4.6-14.6
			c0-7.1,2.4-11.7,4.6-14.7H1138.8z"/>
		<path class="st7" d="M1147.5,253.8v-10.3l-7.5-14h3.5l3.3,6.7c0.9,1.8,1.6,3.3,2.3,5h0.1c0.6-1.6,1.5-3.2,2.4-5l3.4-6.7h3.4
			l-7.9,13.9v10.3L1147.5,253.8L1147.5,253.8z"/>
		<path class="st7" d="M1164.9,246.2l-2.4,7.6h-3.2l8-24.3h3.7l8,24.3h-3.2l-2.5-7.6H1164.9z M1172.6,243.8l-2.3-7
			c-0.5-1.6-0.9-3-1.2-4.4h-0.1c-0.3,1.4-0.7,2.9-1.2,4.4l-2.3,7L1172.6,243.8L1172.6,243.8z"/>
		<path class="st7" d="M1187.7,253.8v-10.3l-7.5-14h3.5l3.3,6.7c0.9,1.8,1.6,3.3,2.3,5h0.1c0.6-1.6,1.5-3.2,2.4-5l3.4-6.7h3.4
			l-7.9,13.9v10.3L1187.7,253.8L1187.7,253.8z"/>
		<path class="st7" d="M1200.6,252c0-1.3,0.9-2.2,2.1-2.2c1.2,0,2,0.9,2,2.2c0,1.2-0.8,2.2-2.1,2.2
			C1201.5,254.2,1200.6,253.3,1200.6,252z M1201.5,246.9l-0.5-17.3h3.4l-0.5,17.3L1201.5,246.9L1201.5,246.9z"/>
		<path class="st7" d="M1208.7,252c0-1.3,0.9-2.2,2.1-2.2c1.2,0,2,0.9,2,2.2c0,1.2-0.8,2.2-2.1,2.2
			C1209.5,254.2,1208.7,253.3,1208.7,252z M1209.5,246.9l-0.5-17.3h3.4l-0.5,17.3L1209.5,246.9L1209.5,246.9z"/>
		<path class="st7" d="M1215.4,258.2c2.5-3.5,4.4-8.2,4.4-14.7s-1.9-11.1-4.4-14.6h2.4c2.2,3,4.6,7.6,4.6,14.7
			c0,7.1-2.4,11.6-4.6,14.7H1215.4z"/>
	</g>
</g>
<g>
	<g>
		<path class="st7" d="M40.5,227.5c-1.1,0.6-3.5,1.2-6.4,1.2c-6.8,0-12-4.3-12-12.3c0-7.6,5.1-12.7,12.7-12.7c3,0,4.9,0.6,5.8,1.1
			l-0.8,2.5c-1.2-0.6-2.9-1-4.9-1c-5.7,0-9.5,3.6-9.5,10c0,5.9,3.4,9.7,9.3,9.7c1.9,0,3.9-0.4,5.1-1L40.5,227.5z"/>
		<path class="st7" d="M54,228.3l-0.3-2.2h-0.1c-1,1.4-2.8,2.6-5.3,2.6c-3.5,0-5.3-2.5-5.3-5c0-4.2,3.7-6.5,10.5-6.5v-0.4
			c0-1.4-0.4-4-4-4c-1.6,0-3.3,0.5-4.5,1.3l-0.7-2.1c1.4-0.9,3.5-1.5,5.7-1.5c5.3,0,6.6,3.6,6.6,7.1v6.5c0,1.5,0.1,3,0.3,4.2H54z
			 M53.5,219.4c-3.4-0.1-7.3,0.5-7.3,3.9c0,2.1,1.4,3,3,3c2.3,0,3.7-1.4,4.2-2.9c0.1-0.3,0.1-0.7,0.1-1V219.4z"/>
		<path class="st7" d="M61.7,202.7h3.1v25.6h-3.1V202.7z"/>
		<path class="st7" d="M70.1,202.7h3.1v25.6h-3.1V202.7z"/>
		<path class="st7" d="M89.5,204v14.4c0,5.4,2.4,7.7,5.7,7.7c3.6,0,5.9-2.4,5.9-7.7V204h3.1v14.2c0,7.5-3.9,10.5-9.2,10.5
			c-5,0-8.7-2.8-8.7-10.4V204H89.5z"/>
		<path class="st7" d="M109.1,225.1c1,0.6,2.6,1.2,4.2,1.2c2.3,0,3.4-1.1,3.4-2.6c0-1.5-0.9-2.3-3.2-3.2c-3.1-1.1-4.6-2.9-4.6-4.9
			c0-2.8,2.3-5.1,6-5.1c1.8,0,3.3,0.5,4.3,1.1l-0.8,2.3c-0.7-0.4-1.9-1-3.6-1c-1.9,0-2.9,1.1-2.9,2.4c0,1.4,1,2.1,3.3,3
			c3,1.1,4.6,2.6,4.6,5.2c0,3.1-2.4,5.2-6.5,5.2c-1.9,0-3.7-0.5-4.9-1.2L109.1,225.1z"/>
	</g>
</g>
</svg>
