<?xml version="1.0" encoding="utf-8"?>
<!-- Generator: Adobe Illustrator 25.4.1, SVG Export Plug-In . SVG Version: 6.00 Build 0)  -->
<svg version="1.1" id="Layer_1" xmlns="http://www.w3.org/2000/svg" xmlns:xlink="http://www.w3.org/1999/xlink" x="0px" y="0px"
	 viewBox="0 0 1313.6 314.58" style="enable-background:new 0 0 1313.6 314.58;" xml:space="preserve">
<style type="text/css">
	.st0{fill:#005900;}
	.st1{fill:none;stroke:#000000;stroke-width:4;stroke-miterlimit:10;stroke-dasharray:12;}
	.st2{fill:#38ED90;}
	.st3{fill:#006C00;}
	.st4{fill:#008E1B;}
	.st5{fill:#45B53C;}
	.st6{fill:#FFFFFF;}
	.st7{fill:#666666;}
</style>
<g>
	<circle class="st0" cx="68.96" cy="113.49" r="47.66"/>
</g>
<line class="st1" x1="116.61" y1="113.49" x2="249.61" y2="113.49"/>
<g>
	<circle class="st2" cx="1203.52" cy="113.49" r="47.66"/>
</g>
<g>
	<circle class="st3" cx="297.27" cy="113.49" r="47.66"/>
</g>
<line class="st1" x1="344.93" y1="113.49" x2="477.93" y2="113.49"/>
<g>
	
		<ellipse transform="matrix(0.1666 -0.986 0.986 0.1666 326.1154 612.8206)" class="st4" cx="525.58" cy="113.49" rx="47.66" ry="47.66"/>
</g>
<line class="st1" x1="573.24" y1="113.49" x2="706.24" y2="113.49"/>
<g>
	<circle class="st5" cx="753.9" cy="113.49" r="47.66"/>
</g>
<line class="st1" x1="801.55" y1="113.49" x2="923.9" y2="117.31"/>
<line class="st1" x1="1022.86" y1="113.49" x2="1155.86" y2="113.49"/>
<g>
	<path class="st5" d="M923.9,117.31l-3.27,18.62c-0.44,2.53,2.29,4.41,4.5,3.09l21.29-12.76c2.21-1.32,1.83-4.63-0.61-5.43
		l-18.02-5.86C926.05,114.41,924.22,115.51,923.9,117.31z"/>
	<g>
		<path class="st5" d="M1002.78,124.31c-3.97,13.22-16.03,22.84-30.3,22.84c-13.51,0-25.04-8.63-29.59-20.78l-11.42,8.27
			c7.28,15.65,22.9,26.48,41.01,26.48c21.88,0,40.14-15.79,44.43-36.82L1002.78,124.31L1002.78,124.31z"/>
	</g>
	<path class="st5" d="M1018.49,109.67l3.27-18.62c0.44-2.53-2.29-4.41-4.5-3.09l-21.29,12.76c-2.21,1.32-1.83,4.63,0.61,5.43
		l18.02,5.86C1016.34,112.57,1018.17,111.47,1018.49,109.67z"/>
	<g>
		<path class="st5" d="M939.61,102.67c3.97-13.22,16.03-22.84,30.3-22.84c13.51,0,25.04,8.63,29.59,20.78l11.42-8.27
			c-7.28-15.65-22.9-26.48-41.01-26.48c-21.88,0-40.14,15.79-44.43,36.82h14.13V102.67z"/>
	</g>
</g>
<g>
	<g>
		<path class="st6" d="M66.63,103.18h-0.11l-6.42,2.87l-1.16-4.46l8.57-3.75h5.54v31.2h-6.43V103.18z"/>
	</g>
</g>
<g>
	<g>
		<path class="st6" d="M284.79,129.98v-3.59l4.16-3.44c8.26-6.79,12.16-10.53,12.2-14.65c0-2.82-1.69-5.25-6.28-5.25
			c-3.11,0-5.74,1.4-7.5,2.6l-1.95-4.2c2.52-1.79,6.36-3.2,10.78-3.2c7.79,0,11.6,4.35,11.6,9.45c0,5.49-4.44,9.9-10.58,14.94
			l-3.04,2.37v0.1h14.39v4.88H284.79z"/>
	</g>
</g>
<g>
	<g>
		<path class="st6" d="M512.79,120.67c1.39,0.71,4.66,1.92,8,1.92c5.07,0,7.12-2.54,7.1-5c-0.03-3.67-3.93-5.28-7.98-5.29h-3.04V108
			h2.96c3.07-0.01,6.94-1.24,6.94-4.34c0-2.15-1.74-3.91-5.62-3.91c-2.84,0-5.72,1.1-7.18,1.95l-1.5-4.27
			c2-1.21,5.91-2.39,10.11-2.39c7.26,0,10.95,3.56,10.95,7.64c0,3.25-2.16,5.93-6.45,7.29v0.1c4.26,0.7,7.7,3.56,7.7,7.78
			c0,5.27-4.99,9.46-13.67,9.46c-4.28,0-7.94-1.06-9.83-2.16L512.79,120.67z"/>
	</g>
</g>
<g>
	<g>
		<path class="st6" d="M753.77,127.3v-7.93h-15.9v-3.84l14.34-19.43h7.85v18.8h4.52v4.47h-4.52v7.93H753.77z M753.77,114.89v-8.49
			c0-1.76,0.09-3.56,0.21-5.4l-0.19-0.02c-1.11,1.96-2.02,3.55-3.11,5.28l-6.43,8.54l-0.02,0.1H753.77z"/>
	</g>
</g>
<g>
	<g>
		<path d="M980.92,101h-13.51l-1.02,6.24c0.79-0.09,1.49-0.13,2.53-0.13c3.07,0.01,6.16,0.62,8.51,2c2.68,1.49,4.59,4.15,4.59,7.92
			c0,5.94-5.54,10.81-14.17,10.81c-4.08,0-7.47-0.91-9.32-1.84l1.37-4.47c1.5,0.72,4.55,1.65,7.73,1.65c3.88,0,7.61-1.98,7.59-5.69
			c-0.02-3.56-2.97-5.94-9.97-5.94c-1.98,0-3.43,0.13-4.8,0.3l2.28-15.74h18.19V101z"/>
	</g>
</g>
<g>
	<g>
		<path class="st6" d="M1210.5,100.82c-0.64-0.03-1.34,0.01-2.22,0.15c-4.84,0.76-7.16,4.76-7.73,9.09h0.1c1.13-1.75,2.87-3,5.19-3
			c3.97,0,7.06,3.84,7.06,10.14c0,5.98-3.23,11.15-8.13,11.15c-5.59,0-8.7-5.75-8.7-13.46c0-6,1.6-10.88,4-13.98
			c2.12-2.71,4.91-4.26,8.2-4.61c0.96-0.15,1.67-0.15,2.21-0.12L1210.5,100.82z M1208.47,117.54c-0.01-3.6-1.47-6.18-4.02-6.18
			c-1.64,0-3.11,1.36-3.77,3.24c-0.17,0.45-0.28,1.03-0.28,1.85c0.08,4.13,1.51,7.49,4.34,7.49
			C1206.99,123.95,1208.47,121.29,1208.47,117.54z"/>
	</g>
</g>
<g>
	<g>
		<path class="st7" d="M40.88,231.71c-1.13,0.57-3.46,1.16-6.41,1.16c-6.83,0-11.96-4.32-11.96-12.29c0-7.61,5.13-12.73,12.66-12.73
			c3,0,4.93,0.63,5.76,1.07l-0.77,2.55c-1.18-0.56-2.86-1-4.88-1c-5.7,0-9.46,3.64-9.46,10.01c0,5.94,3.42,9.73,9.3,9.73
			c1.93,0,3.87-0.39,5.14-0.99L40.88,231.71z"/>
		<path class="st7" d="M54.36,232.49l-0.28-2.2h-0.09c-0.96,1.36-2.83,2.59-5.33,2.59c-3.52,0-5.32-2.5-5.32-5
			c0-4.22,3.74-6.53,10.46-6.48v-0.37c0-1.42-0.4-4.04-3.96-4.02c-1.62,0-3.31,0.48-4.54,1.3l-0.72-2.11
			c1.44-0.93,3.55-1.53,5.75-1.53c5.32,0,6.62,3.64,6.62,7.12v6.51c0,1.49,0.07,2.97,0.26,4.17H54.36z M53.87,223.6
			c-3.43-0.07-7.35,0.54-7.35,3.91c0,2.08,1.37,3.03,2.96,3.03c2.29,0,3.74-1.44,4.24-2.92c0.11-0.34,0.15-0.69,0.15-1V223.6z"/>
		<path class="st7" d="M62.06,206.93h3.15v25.56h-3.15V206.93z"/>
		<path class="st7" d="M70.56,206.93h3.15v25.56h-3.15V206.93z"/>
		<path class="st7" d="M107.25,221.84c-0.19-3.37-0.41-7.47-0.39-10.46h-0.1c-0.83,2.82-1.84,5.87-3.05,9.2l-4.28,11.77h-2.37
			l-3.95-11.55c-1.16-3.43-2.1-6.54-2.78-9.41h-0.08c-0.08,3.02-0.24,7.06-0.48,10.7l-0.65,10.41h-2.98l1.69-24.26h4l4.13,11.74
			c1,2.97,1.81,5.64,2.44,8.17h0.09c0.64-2.46,1.48-5.13,2.57-8.17l4.33-11.75h4.01l1.5,24.26h-3.08L107.25,221.84z"/>
		<path class="st7" d="M117.4,224.36c0.06,4.28,2.78,6.04,5.96,6.04c2.27,0,3.65-0.41,4.82-0.89l0.55,2.25
			c-1.11,0.51-3.04,1.11-5.81,1.11c-5.35,0-8.57-3.56-8.57-8.79c0-5.28,3.11-9.4,8.19-9.4c5.68,0,7.16,4.98,7.16,8.19
			c0,0.66-0.04,1.14-0.11,1.48H117.4z M126.67,222.08c0.03-1.99-0.82-5.12-4.37-5.12c-3.23,0-4.61,2.92-4.86,5.12H126.67z"/>
	</g>
</g>
<g>
	<g>
		<path class="st7" d="M272.71,204.04c-0.19-3.37-0.41-7.47-0.39-10.46h-0.1c-0.83,2.82-1.84,5.87-3.05,9.2l-4.28,11.77h-2.37
			l-3.95-11.55c-1.16-3.43-2.1-6.54-2.78-9.41h-0.08c-0.08,3.02-0.24,7.06-0.48,10.7l-0.65,10.41h-2.98l1.69-24.26h4l4.13,11.74
			c1,2.97,1.81,5.64,2.44,8.17h0.09c0.64-2.46,1.48-5.13,2.57-8.17l4.33-11.75h4.01l1.5,24.26h-3.08L272.71,204.04z"/>
		<path class="st7" d="M282.86,206.56c0.06,4.28,2.78,6.04,5.96,6.04c2.27,0,3.65-0.41,4.82-0.89l0.55,2.25
			c-1.11,0.51-3.04,1.11-5.81,1.11c-5.35,0-8.57-3.56-8.57-8.79c0-5.28,3.11-9.4,8.19-9.4c5.68,0,7.16,4.98,7.16,8.19
			c0,0.66-0.04,1.14-0.11,1.48H282.86z M292.12,204.28c0.03-1.99-0.82-5.12-4.37-5.12c-3.23,0-4.61,2.92-4.86,5.12H292.12z"/>
		<path class="st7" d="M300.89,206.56c0.06,4.28,2.78,6.04,5.96,6.04c2.27,0,3.65-0.41,4.82-0.89l0.55,2.25
			c-1.11,0.51-3.04,1.11-5.81,1.11c-5.35,0-8.57-3.56-8.57-8.79c0-5.28,3.11-9.4,8.19-9.4c5.68,0,7.16,4.98,7.16,8.19
			c0,0.66-0.04,1.14-0.11,1.48H300.89z M310.16,204.28c0.03-1.99-0.82-5.12-4.37-5.12c-3.23,0-4.61,2.92-4.86,5.12H310.16z"/>
		<path class="st7" d="M320.95,192.27v5.01h4.55v2.4h-4.55v9.38c0,2.17,0.62,3.39,2.39,3.39c0.82,0,1.42-0.1,1.83-0.23l0.14,2.41
			c-0.61,0.24-1.6,0.44-2.83,0.44c-1.45,0-2.66-0.48-3.42-1.34c-0.87-0.96-1.23-2.5-1.23-4.54v-9.51h-2.7v-2.4h2.7v-4.19
			L320.95,192.27z"/>
	</g>
</g>
<g>
	<g>
		<path class="st7" d="M231.6,243.7c0,6.45-4.47,9.27-8.66,9.27c-4.72,0-8.37-3.44-8.37-8.97c0-5.83,3.83-9.23,8.65-9.23
			C228.22,234.77,231.6,238.4,231.6,243.7z M217.79,243.9c0,3.82,2.19,6.69,5.28,6.69c3.04,0,5.3-2.84,5.3-6.79
			c0-2.94-1.48-6.67-5.25-6.67C219.41,237.14,217.79,240.6,217.79,243.9z"/>
		<path class="st7" d="M250.16,247.81c0,1.83,0.06,3.39,0.14,4.76h-2.8l-0.17-2.85h-0.09c-0.8,1.4-2.64,3.24-5.76,3.24
			c-2.72,0-6-1.53-6-7.63v-10.17h3.15v9.62c0,3.32,1.03,5.57,3.89,5.57c2.12,0,3.6-1.48,4.19-2.91c0.16-0.46,0.29-1.02,0.29-1.62
			v-10.66h3.15V247.81z"/>
		<path class="st7" d="M255.43,240.59c0-2.06-0.05-3.81-0.14-5.42h2.77l0.12,3.41h0.11c0.81-2.34,2.73-3.81,4.85-3.81
			c0.34,0,0.59,0.02,0.88,0.09v2.98c-0.32-0.07-0.64-0.09-1.08-0.09c-2.23,0-3.81,1.68-4.24,4.05c-0.08,0.44-0.13,0.96-0.13,1.48
			v9.3h-3.15V240.59z"/>
		<path class="st7" d="M287.49,241.2h-9.41v8.76h10.52v2.61h-13.67v-24.26h13.12v2.61h-9.97v7.68h9.41V241.2z"/>
		<path class="st7" d="M294.02,235.17l2.5,3.73c0.65,0.98,1.2,1.86,1.77,2.83h0.08c0.58-1.02,1.16-1.93,1.76-2.87l2.42-3.7h3.45
			l-5.94,8.41l6.1,9h-3.58l-2.58-3.91c-0.67-1.01-1.25-1.99-1.86-3.03h-0.08c-0.57,1.06-1.17,1.98-1.84,3.03l-2.5,3.91h-3.5
			l6.19-8.88l-5.91-8.52H294.02z"/>
		<path class="st7" d="M309.22,240.84c0-2.22-0.06-4.03-0.14-5.67h2.83l0.17,2.97h0.07c1.27-2.12,3.35-3.36,6.18-3.36
			c4.21,0,7.39,3.55,7.39,8.83c0,6.27-3.84,9.37-7.92,9.37c-2.33,0-4.33-1.01-5.37-2.74h-0.07v9.47h-3.15V240.84z M312.36,245.49
			c0,0.45,0.05,0.88,0.14,1.29c0.57,2.21,2.49,3.71,4.73,3.71c3.36,0,5.29-2.75,5.29-6.74c0-3.47-1.82-6.46-5.17-6.46
			c-2.15,0-4.19,1.53-4.79,3.91c-0.1,0.41-0.2,0.87-0.2,1.29V245.49z"/>
		<path class="st7" d="M331.48,244.44c0.06,4.28,2.78,6.04,5.96,6.04c2.27,0,3.65-0.41,4.82-0.89l0.55,2.25
			c-1.11,0.51-3.04,1.11-5.81,1.11c-5.35,0-8.57-3.56-8.57-8.79c0-5.28,3.11-9.4,8.19-9.4c5.68,0,7.16,4.98,7.16,8.19
			c0,0.66-0.04,1.14-0.11,1.48H331.48z M340.74,242.16c0.03-1.99-0.82-5.12-4.37-5.12c-3.23,0-4.61,2.92-4.86,5.12H340.74z"/>
		<path class="st7" d="M347.74,240.59c0-2.06-0.05-3.81-0.14-5.42h2.77l0.12,3.41h0.11c0.81-2.34,2.73-3.81,4.85-3.81
			c0.34,0,0.59,0.02,0.88,0.09v2.98c-0.32-0.07-0.64-0.09-1.08-0.09c-2.23,0-3.81,1.68-4.24,4.05c-0.08,0.44-0.13,0.96-0.13,1.48
			v9.3h-3.15V240.59z"/>
		<path class="st7" d="M363.31,230.15v5.01h4.55v2.4h-4.55v9.38c0,2.17,0.62,3.39,2.39,3.39c0.82,0,1.42-0.1,1.83-0.23l0.14,2.41
			c-0.61,0.24-1.6,0.44-2.83,0.44c-1.45,0-2.66-0.48-3.42-1.34c-0.87-0.96-1.23-2.5-1.23-4.54v-9.51h-2.7v-2.4h2.7v-4.19
			L363.31,230.15z"/>
	</g>
</g>
<g>
	<g>
		<path class="st7" d="M461.14,207.46l-2.51,7.62h-3.25l8.25-24.26h3.77l8.29,24.26h-3.35l-2.6-7.62H461.14z M469.11,205.01
			l-2.4-6.98c-0.53-1.59-0.89-3.03-1.25-4.43h-0.08c-0.35,1.42-0.73,2.9-1.2,4.38l-2.39,7.02H469.11z"/>
		<path class="st7" d="M478.69,211.86c0.95,0.6,2.62,1.24,4.2,1.24c2.31,0,3.38-1.14,3.38-2.59c0-1.52-0.92-2.32-3.23-3.19
			c-3.15-1.14-4.63-2.85-4.63-4.94c0-2.8,2.28-5.1,6.02-5.1c1.77,0,3.3,0.48,4.26,1.07l-0.79,2.3c-0.67-0.42-1.94-1.02-3.57-1.02
			c-1.87,0-2.88,1.08-2.88,2.39c0,1.44,1.02,2.08,3.31,2.97c3,1.12,4.56,2.63,4.57,5.23c0,3.08-2.4,5.25-6.51,5.25
			c-1.91,0-3.67-0.49-4.89-1.21L478.69,211.86z"/>
		<path class="st7" d="M496.54,205.66h0.07c0.42-0.61,1.02-1.38,1.52-1.98l5.13-6h3.8l-6.72,7.16l7.66,10.25h-3.86l-5.99-8.37
			l-1.62,1.81v6.55h-3.15v-25.56h3.15V205.66z"/>
		<path class="st7" d="M532.47,210.32c0,1.83,0.06,3.39,0.14,4.76h-2.8l-0.17-2.85h-0.09c-0.8,1.4-2.64,3.24-5.76,3.24
			c-2.72,0-6-1.53-6-7.63v-10.17h3.15v9.62c0,3.32,1.03,5.57,3.89,5.57c2.12,0,3.6-1.48,4.19-2.91c0.16-0.46,0.29-1.02,0.29-1.62
			v-10.66h3.15V210.32z"/>
		<path class="st7" d="M537.3,211.86c0.95,0.6,2.62,1.24,4.2,1.24c2.31,0,3.38-1.14,3.38-2.59c0-1.52-0.92-2.32-3.23-3.19
			c-3.15-1.14-4.63-2.85-4.63-4.94c0-2.8,2.28-5.1,6.02-5.1c1.77,0,3.3,0.48,4.26,1.07l-0.79,2.3c-0.67-0.42-1.95-1.02-3.57-1.02
			c-1.87,0-2.88,1.08-2.88,2.39c0,1.44,1.02,2.08,3.31,2.97c3,1.12,4.56,2.63,4.57,5.23c0,3.08-2.4,5.25-6.51,5.25
			c-1.91,0-3.67-0.49-4.89-1.21L537.3,211.86z"/>
		<path class="st7" d="M559.94,215.09v-15.01h-2.43v-2.4h2.43v-0.84c0-2.46,0.56-4.68,2.02-6.1c1.19-1.15,2.78-1.61,4.23-1.61
			c1.15,0,2.1,0.24,2.7,0.51l-0.42,2.43c-0.48-0.21-1.1-0.4-2.03-0.4c-2.67,0-3.38,2.37-3.38,5.06v0.94h4.21v2.4h-4.19v15.01H559.94
			z"/>
		<path class="st7" d="M585.9,206.22c0,6.45-4.47,9.27-8.66,9.27c-4.72,0-8.37-3.44-8.37-8.97c0-5.83,3.83-9.23,8.65-9.23
			C582.53,197.28,585.9,200.91,585.9,206.22z M572.1,206.42c0,3.82,2.19,6.69,5.28,6.69c3.04,0,5.3-2.84,5.3-6.79
			c0-2.94-1.48-6.67-5.25-6.67C573.72,199.65,572.1,203.12,572.1,206.42z"/>
		<path class="st7" d="M589.9,203.1c0-2.06-0.05-3.81-0.14-5.42h2.77l0.12,3.41h0.11c0.81-2.34,2.73-3.81,4.85-3.81
			c0.34,0,0.59,0.02,0.88,0.09v2.98c-0.32-0.07-0.64-0.09-1.08-0.09c-2.23,0-3.81,1.68-4.24,4.05c-0.08,0.44-0.13,0.96-0.13,1.48
			v9.3h-3.15V203.1z"/>
	</g>
</g>
<g>
	<g>
		<path class="st7" d="M444.01,254.11c0.08-1.2,0.14-2.94,0.14-4.49v-21.07h3.15v10.94h0.07c1.11-1.96,3.13-3.19,5.94-3.19
			c4.33,0,7.36,3.59,7.35,8.86c0,6.24-3.96,9.33-7.84,9.33c-2.51,0-4.52-0.99-5.83-3.26h-0.08l-0.16,2.86H444.01z M447.3,247.13
			c0,0.39,0.05,0.79,0.13,1.15c0.59,2.2,2.46,3.71,4.75,3.71c3.33,0,5.29-2.7,5.29-6.69c0-3.5-1.81-6.5-5.19-6.5
			c-2.15,0-4.16,1.5-4.79,3.89c-0.1,0.39-0.18,0.81-0.18,1.32V247.13z"/>
		<path class="st7" d="M466.42,245.97c0.06,4.28,2.78,6.04,5.96,6.04c2.27,0,3.65-0.41,4.82-0.89l0.55,2.25
			c-1.11,0.51-3.04,1.11-5.81,1.11c-5.35,0-8.57-3.56-8.57-8.79c0-5.28,3.11-9.4,8.19-9.4c5.68,0,7.16,4.98,7.16,8.19
			c0,0.66-0.04,1.14-0.11,1.48H466.42z M475.68,243.7c0.03-1.99-0.82-5.12-4.37-5.12c-3.23,0-4.61,2.92-4.86,5.12H475.68z"/>
		<path class="st7" d="M486.48,231.69v5.01h4.55v2.4h-4.55v9.38c0,2.17,0.62,3.39,2.39,3.39c0.82,0,1.42-0.1,1.83-0.23l0.14,2.41
			c-0.61,0.24-1.6,0.44-2.83,0.44c-1.45,0-2.66-0.48-3.42-1.34c-0.87-0.96-1.23-2.5-1.23-4.54v-9.51h-2.7v-2.4h2.7v-4.19
			L486.48,231.69z"/>
		<path class="st7" d="M498.4,231.69v5.01h4.55v2.4h-4.55v9.38c0,2.17,0.62,3.39,2.39,3.39c0.82,0,1.42-0.1,1.83-0.23l0.14,2.41
			c-0.61,0.24-1.6,0.44-2.83,0.44c-1.45,0-2.66-0.48-3.42-1.34c-0.87-0.96-1.23-2.5-1.23-4.54v-9.51h-2.7v-2.4h2.7v-4.19
			L498.4,231.69z"/>
		<path class="st7" d="M508.28,245.97c0.06,4.28,2.78,6.04,5.96,6.04c2.27,0,3.65-0.41,4.82-0.89l0.55,2.25
			c-1.11,0.51-3.04,1.11-5.81,1.11c-5.35,0-8.57-3.56-8.57-8.79c0-5.28,3.11-9.4,8.19-9.4c5.68,0,7.16,4.98,7.16,8.19
			c0,0.66-0.04,1.14-0.11,1.48H508.28z M517.55,243.7c0.03-1.99-0.82-5.12-4.37-5.12c-3.23,0-4.61,2.92-4.86,5.12H517.55z"/>
		<path class="st7" d="M524.54,242.12c0-2.06-0.05-3.81-0.14-5.42h2.77l0.12,3.41h0.11c0.81-2.34,2.73-3.81,4.85-3.81
			c0.34,0,0.59,0.02,0.88,0.09v2.98c-0.32-0.07-0.64-0.09-1.08-0.09c-2.23,0-3.81,1.68-4.24,4.05c-0.08,0.44-0.13,0.96-0.13,1.48
			v9.3h-3.15V242.12z"/>
		<path class="st7" d="M558.98,228.55v21.07c0,1.55,0.06,3.29,0.14,4.49h-2.81l-0.16-3.01h-0.08c-0.97,1.94-3.06,3.41-5.91,3.41
			c-4.22,0-7.47-3.57-7.47-8.84c-0.03-5.82,3.58-9.36,7.82-9.36c2.67,0,4.47,1.25,5.25,2.64h0.07v-10.39H558.98z M555.83,243.78
			c0-0.41-0.04-0.94-0.13-1.35c-0.49-2-2.2-3.64-4.58-3.64c-3.28,0-5.24,2.88-5.24,6.7c0,3.54,1.76,6.47,5.17,6.47
			c2.12,0,4.04-1.43,4.63-3.8c0.11-0.42,0.16-0.86,0.16-1.36V243.78z"/>
		<path class="st7" d="M566.03,245.97c0.06,4.28,2.78,6.04,5.96,6.04c2.27,0,3.65-0.41,4.82-0.89l0.55,2.25
			c-1.11,0.51-3.04,1.11-5.81,1.11c-5.35,0-8.57-3.56-8.57-8.79c0-5.28,3.11-9.4,8.19-9.4c5.68,0,7.16,4.98,7.16,8.19
			c0,0.66-0.04,1.14-0.11,1.48H566.03z M575.29,243.7c0.03-1.99-0.82-5.12-4.37-5.12c-3.23,0-4.61,2.92-4.86,5.12H575.29z"/>
		<path class="st7" d="M591.94,254.11l-0.28-2.2h-0.09c-0.96,1.36-2.83,2.59-5.33,2.59c-3.52,0-5.32-2.5-5.32-5
			c0-4.22,3.74-6.53,10.46-6.48v-0.37c0-1.42-0.4-4.04-3.96-4.02c-1.62,0-3.31,0.48-4.54,1.3l-0.72-2.11
			c1.44-0.93,3.55-1.53,5.75-1.53c5.32,0,6.62,3.64,6.62,7.12v6.51c0,1.49,0.07,2.97,0.26,4.17H591.94z M591.45,245.22
			c-3.43-0.07-7.35,0.54-7.35,3.91c0,2.08,1.37,3.03,2.96,3.03c2.29,0,3.74-1.44,4.24-2.92c0.11-0.34,0.15-0.69,0.15-1V245.22z"/>
		<path class="st7" d="M599.64,228.55h3.15v25.56h-3.15V228.55z"/>
	</g>
</g>
<g>
	<g>
		<path class="st7" d="M727.6,190c1.39-0.3,3.55-0.52,5.72-0.52c3.14,0,5.15,0.53,6.66,1.76c1.25,0.95,2.03,2.4,2.03,4.3
			c0,2.34-1.56,4.41-4.1,5.31v0.1c2.31,0.56,5.01,2.46,5.01,6.09c0,2.07-0.82,3.67-2.08,4.83c-1.67,1.57-4.4,2.28-8.38,2.28
			c-2.17,0-3.81-0.15-4.87-0.27V190z M730.73,199.94h2.87c3.28,0,5.22-1.75,5.22-4.1c0-2.81-2.13-3.95-5.3-3.95
			c-1.45,0-2.28,0.11-2.79,0.23V199.94z M730.73,211.54c0.64,0.13,1.51,0.16,2.64,0.16c3.25,0,6.24-1.19,6.24-4.72
			c0-3.3-2.86-4.68-6.28-4.69h-2.61V211.54z"/>
		<path class="st7" d="M762.78,205.06c0,6.45-4.47,9.27-8.66,9.27c-4.72,0-8.37-3.44-8.37-8.97c0-5.83,3.83-9.23,8.65-9.23
			C759.4,196.12,762.78,199.75,762.78,205.06z M748.98,205.26c0,3.82,2.19,6.69,5.28,6.69c3.04,0,5.3-2.84,5.3-6.79
			c0-2.94-1.48-6.67-5.25-6.67C750.59,198.5,748.98,201.96,748.98,205.26z"/>
		<path class="st7" d="M782.54,205.06c0,6.45-4.47,9.27-8.66,9.27c-4.72,0-8.37-3.44-8.37-8.97c0-5.83,3.83-9.23,8.65-9.23
			C779.17,196.12,782.54,199.75,782.54,205.06z M768.74,205.26c0,3.82,2.19,6.69,5.28,6.69c3.04,0,5.3-2.84,5.3-6.79
			c0-2.94-1.48-6.67-5.25-6.67C770.36,198.5,768.74,201.96,768.74,205.26z"/>
		<path class="st7" d="M789.69,204.5h0.07c0.42-0.61,1.02-1.38,1.52-1.98l5.13-6h3.8l-6.72,7.16l7.66,10.25h-3.86l-5.99-8.37
			l-1.62,1.81v6.55h-3.15v-25.56h3.15V204.5z"/>
	</g>
</g>
<g>
	<g>
		<path class="st7" d="M708.86,227.47c1.51-0.27,3.49-0.48,6.03-0.48c3.08,0,5.35,0.71,6.8,2.02c1.32,1.16,2.13,2.92,2.13,5.08
			c0,2.2-0.66,3.93-1.89,5.19c-1.67,1.77-4.35,2.66-7.41,2.66c-0.95,0-1.81-0.04-2.53-0.23v9.73h-3.13V227.47z M711.99,239.15
			c0.7,0.2,1.57,0.27,2.6,0.27c3.8,0,6.09-1.86,6.09-5.18c0-3.21-2.29-4.78-5.73-4.78c-1.38,0-2.41,0.13-2.96,0.25V239.15z"/>
		<path class="st7" d="M727.92,239.45c0-2.06-0.05-3.81-0.14-5.42h2.77l0.12,3.41h0.11c0.81-2.34,2.73-3.81,4.85-3.81
			c0.34,0,0.59,0.02,0.88,0.09v2.98c-0.32-0.07-0.64-0.09-1.08-0.09c-2.23,0-3.81,1.68-4.24,4.05c-0.08,0.44-0.13,0.96-0.13,1.48
			v9.3h-3.15V239.45z"/>
		<path class="st7" d="M755.45,242.56c0,6.45-4.47,9.27-8.66,9.27c-4.72,0-8.37-3.44-8.37-8.97c0-5.83,3.83-9.23,8.65-9.23
			C752.08,233.63,755.45,237.26,755.45,242.56z M741.65,242.76c0,3.82,2.19,6.69,5.28,6.69c3.04,0,5.3-2.84,5.3-6.79
			c0-2.94-1.48-6.67-5.25-6.67C743.26,236,741.65,239.46,741.65,242.76z"/>
		<path class="st7" d="M774.48,225.88v21.07c0,1.55,0.06,3.29,0.14,4.49h-2.82l-0.16-3.01h-0.08c-0.97,1.94-3.06,3.41-5.91,3.41
			c-4.22,0-7.47-3.57-7.47-8.84c-0.03-5.82,3.58-9.36,7.82-9.36c2.67,0,4.47,1.25,5.25,2.64h0.07v-10.39H774.48z M771.33,241.11
			c0-0.41-0.04-0.94-0.13-1.35c-0.49-2-2.2-3.64-4.58-3.64c-3.28,0-5.24,2.88-5.24,6.7c0,3.54,1.76,6.47,5.17,6.47
			c2.12,0,4.04-1.43,4.63-3.8c0.11-0.42,0.16-0.86,0.16-1.36V241.11z"/>
		<path class="st7" d="M794.32,246.67c0,1.83,0.06,3.39,0.14,4.76h-2.8l-0.17-2.85h-0.09c-0.8,1.4-2.64,3.24-5.76,3.24
			c-2.72,0-6-1.53-6-7.63v-10.17h3.15v9.62c0,3.32,1.03,5.57,3.89,5.57c2.12,0,3.6-1.48,4.19-2.91c0.16-0.46,0.29-1.02,0.29-1.62
			v-10.66h3.15V246.67z"/>
		<path class="st7" d="M812.01,250.8c-0.83,0.41-2.65,1.01-4.99,1.01c-5.25,0-8.69-3.57-8.69-8.89c0-5.37,3.66-9.28,9.35-9.28
			c1.87,0,3.55,0.47,4.4,0.93l-0.7,2.43c-0.78-0.41-1.96-0.84-3.7-0.84c-3.97,0-6.15,2.98-6.14,6.59c0,4.03,2.59,6.51,6.06,6.51
			c1.77,0,2.98-0.45,3.88-0.84L812.01,250.8z"/>
		<path class="st7" d="M819.52,229.01v5.01h4.55v2.4h-4.55v9.38c0,2.17,0.62,3.39,2.39,3.39c0.82,0,1.42-0.1,1.83-0.23l0.14,2.41
			c-0.61,0.24-1.6,0.44-2.83,0.44c-1.46,0-2.66-0.48-3.42-1.34c-0.87-0.96-1.23-2.5-1.23-4.54v-9.51h-2.7v-2.4h2.7v-4.19
			L819.52,229.01z"/>
	</g>
</g>
<g>
	<g>
		<path class="st7" d="M928.1,189.62c1.59-0.32,3.87-0.52,6.03-0.52c3.33,0,5.52,0.63,7.03,2c1.2,1.06,1.9,2.71,1.9,4.61
			c0,3.19-2.04,5.31-4.57,6.18v0.09c1.85,0.65,2.97,2.4,3.56,4.91c0.8,3.39,1.37,5.71,1.87,6.66h-3.25
			c-0.38-0.7-0.93-2.77-1.59-5.81c-0.72-3.32-2.03-4.61-4.87-4.71h-2.97v10.51h-3.13V189.62z M931.23,200.66h3.2
			c3.35,0,5.48-1.83,5.48-4.61c0-3.15-2.27-4.52-5.58-4.53c-1.52,0-2.57,0.14-3.1,0.28V200.66z"/>
		<path class="st7" d="M949.15,205.42c0.06,4.28,2.78,6.04,5.96,6.04c2.27,0,3.65-0.41,4.82-0.89l0.55,2.25
			c-1.11,0.51-3.04,1.11-5.81,1.11c-5.35,0-8.57-3.56-8.57-8.79c0-5.28,3.11-9.4,8.19-9.4c5.68,0,7.17,4.98,7.17,8.19
			c0,0.66-0.04,1.14-0.11,1.48H949.15z M958.42,203.14c0.03-1.99-0.82-5.12-4.37-5.12c-3.23,0-4.61,2.92-4.86,5.12H958.42z"/>
		<path class="st7" d="M977.83,212.92c-0.83,0.41-2.65,1.01-4.99,1.01c-5.25,0-8.69-3.57-8.69-8.89c0-5.37,3.66-9.28,9.35-9.28
			c1.87,0,3.55,0.47,4.4,0.93l-0.7,2.43c-0.78-0.41-1.96-0.84-3.7-0.84c-3.97,0-6.15,2.98-6.14,6.59c0,4.03,2.59,6.51,6.06,6.51
			c1.77,0,2.98-0.45,3.88-0.84L977.83,212.92z"/>
		<path class="st7" d="M983.31,205.42c0.06,4.28,2.78,6.04,5.96,6.04c2.26,0,3.65-0.41,4.82-0.89l0.55,2.25
			c-1.11,0.51-3.04,1.11-5.81,1.11c-5.35,0-8.57-3.56-8.57-8.79c0-5.28,3.11-9.4,8.19-9.4c5.68,0,7.16,4.98,7.16,8.19
			c0,0.66-0.04,1.14-0.11,1.48H983.31z M992.58,203.14c0.03-1.99-0.82-5.12-4.37-5.12c-3.23,0-4.61,2.92-4.86,5.12H992.58z"/>
		<path class="st7" d="M1003.11,191.22c0,1.08-0.75,1.97-2.01,1.97c-1.15,0-1.91-0.89-1.91-1.97c0-1.09,0.81-1.97,1.97-1.97
			C1002.34,189.25,1003.11,190.11,1003.11,191.22z M999.58,213.55v-17.41h3.15v17.41H999.58z"/>
		<path class="st7" d="M1009.22,196.14l3.41,9.76c0.59,1.61,1.04,3.05,1.43,4.5h0.09c0.4-1.45,0.9-2.89,1.46-4.5l3.41-9.76h3.31
			l-6.85,17.41h-3.02l-6.63-17.41H1009.22z"/>
		<path class="st7" d="M1027.09,205.42c0.06,4.28,2.78,6.04,5.96,6.04c2.26,0,3.65-0.41,4.82-0.89l0.55,2.25
			c-1.11,0.51-3.04,1.11-5.81,1.11c-5.35,0-8.57-3.56-8.57-8.79c0-5.28,3.11-9.4,8.19-9.4c5.68,0,7.16,4.98,7.16,8.19
			c0,0.66-0.04,1.14-0.11,1.48H1027.09z M1036.35,203.14c0.03-1.99-0.82-5.12-4.37-5.12c-3.23,0-4.61,2.92-4.86,5.12H1036.35z"/>
	</g>
</g>
<g>
	<g>
		<path class="st7" d="M891.8,227.5c1.92-0.31,4.2-0.52,6.67-0.52c4.49,0,7.71,1.06,9.83,3.05c2.17,1.96,3.43,4.77,3.43,8.68
			c0,3.98-1.24,7.2-3.49,9.44c-2.29,2.26-6.04,3.5-10.74,3.5c-2.25,0-4.11-0.09-5.7-0.27V227.5z M894.95,248.97
			c0.79,0.13,1.96,0.15,3.15,0.15c6.72,0.02,10.33-3.72,10.33-10.28c0.04-5.73-3.2-9.35-9.81-9.35c-1.62,0-2.84,0.15-3.67,0.32
			V248.97z"/>
		<path class="st7" d="M917.46,243.3c0.06,4.28,2.78,6.04,5.96,6.04c2.26,0,3.65-0.41,4.82-0.89l0.55,2.25
			c-1.11,0.51-3.04,1.11-5.81,1.11c-5.35,0-8.57-3.56-8.57-8.79c0-5.28,3.11-9.4,8.19-9.4c5.68,0,7.16,4.98,7.16,8.19
			c0,0.66-0.04,1.14-0.11,1.48H917.46z M926.72,241.02c0.03-1.99-0.82-5.12-4.37-5.12c-3.23,0-4.61,2.92-4.86,5.12H926.72z"/>
		<path class="st7" d="M933.72,225.87h3.15v25.56h-3.15V225.87z"/>
		<path class="st7" d="M945.76,229.1c0,1.08-0.75,1.97-2.01,1.97c-1.15,0-1.91-0.89-1.91-1.97c0-1.09,0.81-1.97,1.97-1.97
			C944.98,227.13,945.75,228,945.76,229.1z M942.22,251.43v-17.41h3.15v17.41H942.22z"/>
		<path class="st7" d="M951.86,234.02l3.41,9.76c0.59,1.61,1.04,3.05,1.43,4.5h0.09c0.4-1.45,0.9-2.89,1.46-4.5l3.41-9.76h3.31
			l-6.85,17.41h-3.02l-6.63-17.41H951.86z"/>
		<path class="st7" d="M969.73,243.3c0.06,4.28,2.78,6.04,5.96,6.04c2.26,0,3.65-0.41,4.82-0.89l0.55,2.25
			c-1.11,0.51-3.04,1.11-5.81,1.11c-5.35,0-8.57-3.56-8.57-8.79c0-5.28,3.11-9.4,8.19-9.4c5.68,0,7.16,4.98,7.16,8.19
			c0,0.66-0.04,1.14-0.11,1.48H969.73z M978.99,241.02c0.03-1.99-0.82-5.12-4.37-5.12c-3.23,0-4.61,2.92-4.86,5.12H978.99z"/>
		<path class="st7" d="M985.99,239.44c0-2.06-0.05-3.81-0.14-5.42h2.77l0.12,3.41h0.11c0.81-2.34,2.73-3.81,4.85-3.81
			c0.34,0,0.59,0.02,0.88,0.09v2.98c-0.32-0.07-0.64-0.09-1.08-0.09c-2.23,0-3.81,1.68-4.24,4.05c-0.08,0.44-0.13,0.96-0.13,1.48
			v9.3h-3.15V239.44z"/>
		<path class="st7" d="M1007.42,251.43l-0.28-2.2h-0.09c-0.96,1.36-2.83,2.59-5.33,2.59c-3.52,0-5.32-2.5-5.32-5
			c0-4.22,3.74-6.53,10.46-6.48v-0.37c0-1.42-0.4-4.04-3.96-4.02c-1.62,0-3.31,0.48-4.54,1.3l-0.72-2.11
			c1.44-0.93,3.55-1.53,5.75-1.53c5.32,0,6.62,3.64,6.62,7.12v6.51c0,1.49,0.07,2.97,0.26,4.17H1007.42z M1006.92,242.54
			c-3.43-0.07-7.35,0.54-7.35,3.91c0,2.08,1.37,3.03,2.96,3.03c2.29,0,3.74-1.44,4.24-2.92c0.11-0.34,0.15-0.69,0.15-1V242.54z"/>
		<path class="st7" d="M1014.97,251.43c0.08-1.2,0.14-2.94,0.14-4.49v-21.07h3.15v10.94h0.07c1.11-1.96,3.13-3.19,5.94-3.19
			c4.33,0,7.36,3.59,7.35,8.86c0,6.24-3.96,9.33-7.84,9.33c-2.51,0-4.52-0.99-5.83-3.26h-0.08l-0.16,2.86H1014.97z M1018.26,244.45
			c0,0.39,0.05,0.79,0.13,1.15c0.59,2.2,2.46,3.71,4.75,3.71c3.33,0,5.29-2.7,5.29-6.69c0-3.5-1.81-6.5-5.19-6.5
			c-2.15,0-4.16,1.5-4.79,3.89c-0.1,0.39-0.18,0.81-0.18,1.32V244.45z"/>
		<path class="st7" d="M1035.6,225.87h3.15v25.56h-3.15V225.87z"/>
		<path class="st7" d="M1045.87,243.3c0.06,4.28,2.78,6.04,5.96,6.04c2.26,0,3.65-0.41,4.82-0.89l0.55,2.25
			c-1.11,0.51-3.04,1.11-5.81,1.11c-5.35,0-8.57-3.56-8.57-8.79c0-5.28,3.11-9.4,8.19-9.4c5.68,0,7.16,4.98,7.16,8.19
			c0,0.66-0.04,1.14-0.11,1.48H1045.87z M1055.13,241.02c0.03-1.99-0.82-5.12-4.37-5.12c-3.23,0-4.61,2.92-4.86,5.12H1055.13z"/>
		<path class="st7" d="M1061.68,248.21c0.95,0.6,2.62,1.24,4.2,1.24c2.31,0,3.38-1.14,3.38-2.59c0-1.52-0.92-2.32-3.23-3.19
			c-3.15-1.14-4.63-2.85-4.63-4.94c0-2.8,2.28-5.1,6.02-5.1c1.77,0,3.3,0.48,4.26,1.07l-0.79,2.3c-0.67-0.42-1.95-1.02-3.57-1.02
			c-1.87,0-2.88,1.08-2.88,2.39c0,1.44,1.02,2.08,3.31,2.97c3,1.12,4.56,2.63,4.57,5.23c0,3.08-2.4,5.25-6.51,5.25
			c-1.91,0-3.67-0.49-4.89-1.21L1061.68,248.21z"/>
	</g>
</g>
<g>
	<g>
		<path class="st7" d="M1116.98,205.55c1.4,0.88,3.45,1.57,5.6,1.57c3.2,0,5.09-1.67,5.09-4.13c0-2.25-1.32-3.57-4.59-4.8
			c-3.96-1.4-6.42-3.49-6.42-6.88c0-3.78,3.14-6.58,7.86-6.58c2.46,0,4.29,0.57,5.35,1.17l-0.87,2.57c-0.77-0.46-2.4-1.15-4.58-1.15
			c-3.33,0-4.59,1.97-4.59,3.63c0,2.25,1.48,3.36,4.83,4.66c4.12,1.61,6.19,3.59,6.19,7.15c0,3.72-2.74,7-8.49,7
			c-2.35,0-4.9-0.71-6.2-1.58L1116.98,205.55z"/>
		<path class="st7" d="M1136.28,191.96l2.34,8.83c0.5,1.94,0.94,3.76,1.29,5.56h0.09c0.39-1.75,0.96-3.64,1.56-5.53l2.84-8.86h2.66
			l2.71,8.71c0.62,2.06,1.13,3.91,1.54,5.68h0.08c0.32-1.76,0.79-3.6,1.35-5.65l2.49-8.73h3.12l-5.62,17.41h-2.88l-2.65-8.31
			c-0.63-1.95-1.12-3.69-1.54-5.74h-0.07c-0.44,2.1-0.98,3.91-1.59,5.77l-2.8,8.28h-2.9l-5.25-17.41H1136.28z"/>
		<path class="st7" d="M1163.31,201.24c0.06,4.28,2.78,6.04,5.96,6.04c2.27,0,3.65-0.41,4.82-0.89l0.55,2.25
			c-1.11,0.51-3.04,1.11-5.81,1.11c-5.35,0-8.57-3.56-8.57-8.79c0-5.28,3.11-9.4,8.19-9.4c5.68,0,7.17,4.98,7.17,8.19
			c0,0.66-0.04,1.14-0.11,1.48H1163.31z M1172.58,198.96c0.03-1.99-0.82-5.12-4.37-5.12c-3.23,0-4.61,2.92-4.86,5.12H1172.58z"/>
		<path class="st7" d="M1181.35,201.24c0.06,4.28,2.78,6.04,5.96,6.04c2.26,0,3.65-0.41,4.82-0.89l0.55,2.25
			c-1.11,0.51-3.04,1.11-5.81,1.11c-5.35,0-8.57-3.56-8.57-8.79c0-5.28,3.11-9.4,8.19-9.4c5.68,0,7.16,4.98,7.16,8.19
			c0,0.66-0.04,1.14-0.11,1.48H1181.35z M1190.61,198.96c0.03-1.99-0.82-5.12-4.37-5.12c-3.23,0-4.61,2.92-4.86,5.12H1190.61z"/>
		<path class="st7" d="M1201.41,186.95v5.01h4.55v2.4h-4.55v9.38c0,2.17,0.62,3.39,2.39,3.39c0.82,0,1.42-0.1,1.83-0.23l0.14,2.41
			c-0.62,0.24-1.6,0.44-2.83,0.44c-1.45,0-2.66-0.48-3.42-1.34c-0.87-0.96-1.23-2.5-1.23-4.54v-9.51h-2.7v-2.4h2.7v-4.19
			L1201.41,186.95z"/>
		<path class="st7" d="M1220.4,185.11v10.16h11.73v-10.16h3.15v24.26h-3.15v-11.38h-11.73v11.38h-3.15v-24.26H1220.4z"/>
		<path class="st7" d="M1256.39,200.5c0,6.45-4.47,9.27-8.66,9.27c-4.72,0-8.37-3.44-8.37-8.97c0-5.83,3.83-9.23,8.65-9.23
			C1253.01,191.56,1256.39,195.2,1256.39,200.5z M1242.58,200.7c0,3.82,2.19,6.69,5.28,6.69c3.04,0,5.3-2.84,5.3-6.79
			c0-2.94-1.48-6.67-5.25-6.67C1244.2,193.94,1242.58,197.4,1242.58,200.7z"/>
		<path class="st7" d="M1260.39,196.66c0-1.82-0.06-3.26-0.14-4.7h2.75l0.17,2.8h0.09c0.97-1.66,2.59-3.2,5.5-3.2
			c2.36,0,4.16,1.44,4.91,3.49h0.07c0.56-0.99,1.24-1.74,1.96-2.27c1.05-0.79,2.19-1.22,3.83-1.22c2.33,0,5.75,1.5,5.75,7.55v10.25
			h-3.09v-9.85c0-3.37-1.24-5.37-3.78-5.37c-1.82,0-3.21,1.32-3.77,2.85c-0.15,0.46-0.26,1.02-0.26,1.59v10.78h-3.09v-10.45
			c0-2.77-1.23-4.77-3.62-4.77c-1.97,0-3.42,1.57-3.95,3.16c-0.16,0.46-0.24,1.02-0.24,1.56v10.49h-3.09V196.66z"/>
		<path class="st7" d="M1292.19,201.24c0.06,4.28,2.78,6.04,5.96,6.04c2.26,0,3.65-0.41,4.82-0.89l0.55,2.25
			c-1.11,0.51-3.04,1.11-5.81,1.11c-5.35,0-8.57-3.56-8.57-8.79c0-5.28,3.11-9.4,8.19-9.4c5.68,0,7.16,4.98,7.16,8.19
			c0,0.66-0.04,1.14-0.11,1.48H1292.19z M1301.45,198.96c0.03-1.99-0.82-5.12-4.37-5.12c-3.23,0-4.61,2.92-4.86,5.12H1301.45z"/>
	</g>
</g>
<g>
	<g>
		<path class="st7" d="M1174.34,226.43c-2.62,3.55-4.52,8.21-4.52,14.75c0,6.42,1.97,10.99,4.52,14.59h-2.46
			c-2.28-2.98-4.71-7.59-4.71-14.61c0.01-7.08,2.43-11.7,4.71-14.73H1174.34z"/>
		<path class="st7" d="M1183.23,251.43v-10.28l-7.69-13.98h3.59l3.41,6.7c0.92,1.84,1.67,3.31,2.41,5.01h0.07
			c0.67-1.6,1.5-3.18,2.43-5.03l3.5-6.68h3.55l-8.12,13.93v10.33H1183.23z"/>
		<path class="st7" d="M1201.21,243.81l-2.51,7.62h-3.25l8.25-24.26h3.77l8.29,24.26h-3.35l-2.6-7.62H1201.21z M1209.18,241.36
			l-2.4-6.98c-0.53-1.59-0.89-3.03-1.25-4.43h-0.08c-0.35,1.42-0.73,2.9-1.2,4.38l-2.39,7.02H1209.18z"/>
		<path class="st7" d="M1224.73,251.43v-10.28l-7.69-13.98h3.59l3.41,6.7c0.92,1.84,1.67,3.31,2.41,5.01h0.07
			c0.67-1.6,1.5-3.18,2.43-5.03l3.5-6.68h3.55l-8.12,13.93v10.33H1224.73z"/>
		<path class="st7" d="M1238.08,249.6c0-1.32,0.88-2.25,2.13-2.25c1.27,0,2.1,0.94,2.11,2.25c0,1.24-0.83,2.22-2.13,2.22
			C1238.93,251.83,1238.06,250.85,1238.08,249.6z M1238.96,244.46l-0.51-17.29h3.47l-0.51,17.29H1238.96z"/>
		<path class="st7" d="M1246.36,249.6c0-1.32,0.88-2.25,2.13-2.25c1.27,0,2.1,0.94,2.11,2.25c0,1.24-0.83,2.22-2.13,2.22
			C1247.21,251.83,1246.34,250.85,1246.36,249.6z M1247.24,244.46l-0.51-17.29h3.47l-0.51,17.29H1247.24z"/>
		<path class="st7" d="M1253.34,255.77c2.55-3.55,4.52-8.22,4.52-14.69c0-6.47-1.93-11.05-4.52-14.64h2.46
			c2.28,2.96,4.71,7.58,4.71,14.66c-0.01,7.05-2.43,11.63-4.71,14.67H1253.34z"/>
	</g>
</g>
</svg>
