<?xml version="1.0" encoding="utf-8"?>
<!-- Generator: Adobe Illustrator 25.4.1, SVG Export Plug-In . SVG Version: 6.00 Build 0)  -->
<svg version="1.1" xmlns="http://www.w3.org/2000/svg" xmlns:xlink="http://www.w3.org/1999/xlink" x="0px" y="0px"
	 viewBox="0 0 1118.8 1118.8" style="enable-background:new 0 0 1118.8 1118.8;" xml:space="preserve">
<style type="text/css">
	.st0{fill:#FFFFFF;}
	.st1{display:none;}
	.st2{fill:#009290;}
</style>
<g id="Layer_2">
	<circle class="st0" cx="559.4" cy="559.4" r="559.4"/>
</g>
<g id="Layer_1">
	<polygon class="st1" points="1208.3,0.9 1207.3,432.4 522.3,431.1 523.3,1.4 264.3,0.9 261.7,1116.4 522.3,1116.9 523.4,636.4 
		1208.3,637.6 1207.2,1117.4 1464.3,1117.9 1466.9,1.4 	"/>
	<polygon class="st0" points="-180.4,938.9 -180.4,1184.9 -495.5,1184.9 -495.5,938.9 -621.9,938.9 -621.9,1577.1 -495.5,1577.1 
		-495.5,1306.5 -180.4,1306.5 -180.4,1577.1 -54.1,1577.1 -54.1,938.9 	"/>
	<g>
		<polygon class="st2" points="760.8,691.3 361.7,318.8 357.9,48.3 757.1,420.8 		"/>
		<polygon class="st2" points="760.8,1070.5 361.7,698 357.9,427.5 757.1,799.8 		"/>
	</g>
</g>
</svg>
